<?xml version="1.0" encoding="UTF-8"?>
<svg version="1.1" xmlns="http://www.w3.org/2000/svg" width="512" height="512">
<path d="M0 0 C14.90309133 11.55433122 23.32642529 25.30671339 26 44 C26 46.31 26 48.62 26 51 C31.61 51 37.22 51 43 51 C43.33 49.35 43.66 47.7 44 46 C47.04533935 39.77691525 52.03232276 37.05855912 58 34 C64.38514787 31.87161738 71.66401965 32.06790285 77.875 34.6875 C84.58191271 38.15617457 88.66437673 42.20521186 92 49 C94.17688039 55.96893923 94.03185036 63.6688816 91 70.3125 C87.22501681 76.88964159 82.38494856 81.4523317 75.1875 84 C67.58425434 85.88037258 59.73171967 85.25191482 52.85546875 81.3671875 C47.45664744 77.38910864 44.31906293 73.59531463 43 67 C37.39 67 31.78 67 26 67 C26 82.84 26 98.68 26 115 C34.07057711 115.01634666 42.13632393 115.02595005 50.20594788 114.97145844 C53.96423838 114.9479879 57.72164305 114.93663173 61.47998047 114.95532227 C65.10508446 114.97287102 68.72860378 114.95612352 72.35351562 114.91632271 C73.73125481 114.9070811 75.10913271 114.90986939 76.48681641 114.92530632 C85.754995 115.09074212 85.754995 115.09074212 93.59936523 110.73510742 C94.75872295 109.51407182 95.89538 108.27076863 97 107 C97.88051025 106.18837402 98.76102051 105.37674805 99.66821289 104.54052734 C102.14857132 102.16764498 104.60825413 99.77487373 107.0625 97.375 C107.94099609 96.54226562 108.81949219 95.70953125 109.72460938 94.8515625 C110.96114258 93.63726562 110.96114258 93.63726562 112.22265625 92.3984375 C112.97297119 91.67317871 113.72328613 90.94791992 114.49633789 90.20068359 C116.28387802 88.0833995 116.28387802 88.0833995 115.77392578 85.39990234 C115.51853027 84.60793457 115.26313477 83.8159668 115 83 C113.19857939 74.67859898 111.77068294 67.44038099 116.30078125 59.80859375 C120.56339487 53.82771728 125.68111118 48.81352997 133 47 C141.71931613 45.9514025 148.78234929 46.80904469 156 52 C161.34488021 56.76736137 164.62462867 62.11652867 165.31640625 69.2734375 C165.61579156 78.3322576 164.52522565 83.91815977 158.625 90.75 C153.60651047 95.05156245 148.76505008 98.47617991 142 99 C141.16388184 98.78537109 140.32776367 98.57074219 139.46630859 98.34960938 C135.94100519 97.48218071 133.59273894 97.3346119 130 98 C124.23332344 101.60056282 119.77166893 107.19198254 115.25 112.1875 C113.35454222 114.23153113 111.44977139 116.26567914 109.53314209 118.28987122 C108.34799796 119.54662875 107.17596337 120.81593359 106.02008057 122.09965515 C101.20335819 127.29246832 96.92503956 130.60495819 89.71026611 131.33110046 C85.65346741 131.46349878 81.61989905 131.45063538 77.5625 131.390625 C76.07178511 131.38315296 74.58106031 131.37746458 73.09033203 131.37347412 C69.19061565 131.35829323 65.29150711 131.31907846 61.39202881 131.2746582 C56.70054178 131.22629606 52.00885007 131.20813541 47.31718445 131.18484497 C40.21103518 131.14622098 33.10621629 131.06951733 26 131 C26 141.23 26 151.46 26 162 C28.58835693 161.97381592 31.17671387 161.94763184 33.84350586 161.9206543 C42.41685399 161.83762666 50.99022036 161.78250511 59.56386471 161.74093914 C64.75967193 161.7148991 69.95506554 161.67960337 75.15063477 161.62280273 C80.16922099 161.56828334 85.18741059 161.53853743 90.20627022 161.52561378 C92.11637168 161.51640961 94.02645262 161.49843596 95.9363842 161.47134972 C110.45560638 161.27372042 117.75348993 162.72214939 128.34594727 172.8918457 C130.77353402 175.29955089 133.16951704 177.73757406 135.56640625 180.17578125 C136.85303755 181.4698848 138.1405637 182.76309923 139.42893982 184.0554657 C142.79644722 187.43815177 146.15176106 190.83268011 149.50457764 194.22991943 C152.93644661 197.70290936 156.37984984 201.16442252 159.82226562 204.62695312 C166.55943898 211.40686011 173.28377133 218.19934886 180 225 C181.10303467 224.67692871 182.20606934 224.35385742 183.3425293 224.02099609 C190.91461377 221.9072215 197.4997727 222.45044704 204.67578125 225.68359375 C211.19601184 229.37656469 214.88269574 234.36347136 217.33984375 241.39453125 C219.40316611 249.5379396 218.12545523 256.71618439 214 264 C209.66633993 270.01194752 204.13047399 273.19332818 197 275 C189.69047468 276.10268111 183.44484811 274.53834798 177 271 C174.125 268.5625 174.125 268.5625 172 266 C171.278125 265.195625 170.55625 264.39125 169.8125 263.5625 C165.37457505 257.28819232 165.33965909 250.45796794 166 243 C166.64058084 240.99149293 167.30417577 238.99004349 168 237 C160.75326381 229.7301066 153.50383878 222.46290641 146.25095654 215.19914436 C142.8833404 211.82630682 139.516662 208.45254417 136.15209961 205.07666016 C132.90586176 201.81956715 129.65719632 198.56491388 126.40682411 195.31194687 C125.166385 194.06965826 123.92682723 192.82648897 122.68816185 191.58243179 C120.95482434 189.84184905 119.2183965 188.10440704 117.48120117 186.36767578 C116.96834564 185.85122498 116.45549011 185.33477417 115.92709351 184.80267334 C110.96883858 179.8587582 107.91103477 178.70054554 101.0402832 178.68115234 C100.23029877 178.67110672 99.42031433 178.6610611 98.58578491 178.65071106 C95.9074576 178.61981063 93.22923056 178.60282496 90.55078125 178.5859375 C88.69417962 178.56723136 86.83758653 178.54765837 84.98100281 178.5272522 C80.09350621 178.47586643 75.20598203 178.43627523 70.31835938 178.39910889 C64.4545548 178.35207748 58.59088777 178.29045208 52.72719574 178.23126221 C43.81818582 178.14297141 34.9092033 178.0732633 26 178 C26 191.86 26 205.72 26 220 C32.6 220 39.2 220 46 220 C46.66 218.02 47.32 216.04 48 214 C51.57786234 208.39505157 56.48542947 204.38981613 62.890625 202.41796875 C70.97929135 200.81521449 78.94226675 201.61370628 86 206 C92.61679258 211.9407049 96.17815305 217.73310266 96.95703125 226.609375 C97.09919143 234.51865019 94.34083145 241.17860294 89 247 C82.04243491 252.31001368 75.78659662 254.58577311 67 254 C58.91479079 252.17939438 52.61446013 248.85082491 48.0625 241.8125 C46 238.34405145 46 238.34405145 46 236 C39.4 236 32.8 236 26 236 C26 253.49 26 270.98 26 289 C39.56382745 289.0546848 39.56382745 289.0546848 53.12695312 289.03515625 C58.6599031 289.01072105 64.19192277 288.99494314 69.72485352 289.03076172 C74.18633747 289.05909991 78.64619876 289.04857604 83.10759926 289.01119995 C84.8088173 289.00375823 86.510156 289.01027739 88.21126366 289.03103638 C97.19892856 289.54561467 97.19892856 289.54561467 105.07925415 286.2512207 C106.34950849 284.2005481 107.13752313 282.24247083 108 280 C112.83677883 274.4977083 119.68682929 271.64733787 126.90234375 271.0078125 C134.68974075 270.97880916 141.27250255 273.7453166 147 279 C152.31001368 285.95756509 154.58577311 292.21340338 154 301 C152.19794478 309.00282791 148.89979087 315.34562861 141.9375 319.875 C135.4261707 323.76890386 128.42242071 323.7430962 121 323 C114.2464636 320.94537706 108.64678999 317.12315751 105 311 C104.34 309.02 103.68 307.04 103 305 C77.59 305 52.18 305 26 305 C26 321.5 26 338 26 355 C47.12 354.67 68.24 354.34 90 354 C90.99 352.02 91.98 350.04 93 348 C96.31591023 342.96472891 101.13656577 339.27716834 106.890625 337.375 C116.30929261 335.7005702 124.28974829 336.85983219 132.1875 342.125 C136.87632703 346.32700892 140.61066235 353.10662352 141.23828125 359.3828125 C141.4951211 368.87236889 138.96421718 375.5952897 132.4921875 382.56640625 C127.4764322 387.38520781 121.32927326 388.8708694 114.51171875 389.07421875 C107.29096433 388.68117613 101.42735855 386.2805766 96.17578125 381.25390625 C93.51383153 378.25679579 91.81636651 375.63273302 90 372 C58.32 371.505 58.32 371.505 26 371 C26 383.87 26 396.74 26 410 C29.0834375 409.95359375 32.166875 409.9071875 35.34375 409.859375 C38.34894161 409.82812922 41.35411473 409.80387002 44.359375 409.78027344 C46.43888525 409.76022841 48.51833963 409.73298487 50.59765625 409.69824219 C53.59649487 409.64941052 56.59458463 409.62695972 59.59375 409.609375 C60.51490601 409.58872986 61.43606201 409.56808472 62.38513184 409.54681396 C69.85734548 409.54424948 74.89804796 411.3307142 80.57299805 416.21411133 C81.29527588 416.9955249 82.01755371 417.77693848 82.76171875 418.58203125 C83.57060547 419.43087891 84.37949219 420.27972656 85.21289062 421.15429688 C86.87781474 422.94274338 88.53921648 424.7344748 90.19726562 426.52929688 C91.00228516 427.37169922 91.80730469 428.21410156 92.63671875 429.08203125 C93.35561279 429.85780518 94.07450684 430.6335791 94.81518555 431.43286133 C96.90711406 433.29470496 96.90711406 433.29470496 99.59790039 432.75976562 C100.39059326 432.50904297 101.18328613 432.25832031 102 432 C111.34551092 431.20380424 118.39433212 432.23172628 125.75 438.25 C132.25832087 446.2046144 134.92503883 452.6341237 134 463 C132.23436779 471.13622408 127.90351941 476.46278127 121 481 C113.49372964 484.70470763 105.71035501 484.76319734 97.7734375 482.3125 C90.99016686 479.37919378 86.76990323 473.96886993 83.0625 467.75 C81.51423329 462.28552925 80.68242267 455.62226002 82.67163086 450.15356445 C83.79439236 447.03735205 84.34014913 444.97899476 83.23071289 441.78588867 C79.38664559 435.19513984 73.99509999 430.04746313 67 427 C53.79273944 424.1093833 39.4068834 425.31705555 26 426 C26.01571045 426.59312988 26.0314209 427.18625977 26.04760742 427.79736328 C26.51762125 448.29155281 25.06817854 466.6367451 10.5625 482.5 C-0.85514758 494.4144019 -14.96949812 502.0549699 -31.71362305 502.43139648 C-50.47566847 502.47249445 -65.02160012 498.06169308 -78.8125 484.6875 C-82.36979173 481.090462 -84.56124007 478.05373958 -86.5625 473.4375 C-87.96602003 470.83914659 -88.92549755 469.33090615 -91.80908203 468.44287109 C-95.66914375 467.77551442 -99.53861098 467.5606107 -103.4453125 467.33984375 C-109.38134084 466.99478294 -114.5398854 465.29308777 -120 463 C-120.84691406 462.65195312 -121.69382813 462.30390625 -122.56640625 461.9453125 C-137.66178823 455.09451317 -148.21356494 442.53122573 -154.78515625 427.53125 C-156.63032088 422.16781327 -157.59292483 416.73450431 -158.45703125 411.140625 C-158.66453694 408.1433601 -158.66453694 408.1433601 -160 407 C-162.18813803 407.03338352 -164.37573429 407.10313052 -166.5625 407.1875 C-183.28503796 407.44989347 -198.73046483 401.45469313 -211.3984375 390.5390625 C-222.85164002 379.36101199 -230.80636161 364.75562886 -231.265625 348.58984375 C-231.27086229 346.70572925 -231.26553862 344.82155771 -231.25 342.9375 C-231.26160156 341.52500977 -231.26160156 341.52500977 -231.2734375 340.08398438 C-231.26136405 335.74659686 -231.0891644 331.81955379 -229.921875 327.62890625 C-229.0187329 324.07374094 -228.58917165 322.35437612 -230 319 C-232.23379245 316.93931725 -232.23379245 316.93931725 -235.0625 315.1875 C-252.81425049 302.85735372 -263.88827077 284.12599872 -268.50390625 263.140625 C-272.30761752 239.06043711 -267.78188027 215.48355325 -254.0546875 195.11328125 C-252.13073615 192.63239662 -250.13007307 190.30595066 -248 188 C-246.80697266 186.70449219 -246.80697266 186.70449219 -245.58984375 185.3828125 C-240.50812567 180.0890289 -235.31050921 175.74972286 -229 172 C-229.144375 171.46117187 -229.28875 170.92234375 -229.4375 170.3671875 C-233.8937185 150.62366387 -231.72145917 131.00252473 -221.14892578 113.76025391 C-213.02814355 101.31851147 -200.11545623 92.41260376 -186 88 C-185.34644531 87.77699219 -184.69289063 87.55398437 -184.01953125 87.32421875 C-175.9886372 85.04077305 -167.26482554 85.83951795 -159 86 C-158.87044922 84.71029297 -158.87044922 84.71029297 -158.73828125 83.39453125 C-156.56112136 65.07842463 -149.10047761 50.11274509 -135 38 C-122.34016412 28.34993193 -108.65913478 24.68083195 -93 24 C-92.01 24.33 -91.02 24.66 -90 25 C-89.814375 24.195625 -89.62875 23.39125 -89.4375 22.5625 C-84.11061734 9.36109515 -71.18427086 -0.92724383 -58.51171875 -6.546875 C-39.15366775 -13.96725103 -17.18501898 -11.48225227 0 0 Z " fill="#EF5050" transform="translate(274,10)"/>
<path d="M0 0 C14.90309133 11.55433122 23.32642529 25.30671339 26 44 C26 46.31 26 48.62 26 51 C31.61 51 37.22 51 43 51 C43.33 49.35 43.66 47.7 44 46 C47.04533935 39.77691525 52.03232276 37.05855912 58 34 C64.38514787 31.87161738 71.66401965 32.06790285 77.875 34.6875 C84.58191271 38.15617457 88.66437673 42.20521186 92 49 C94.17688039 55.96893923 94.03185036 63.6688816 91 70.3125 C87.22501681 76.88964159 82.38494856 81.4523317 75.1875 84 C67.58425434 85.88037258 59.73171967 85.25191482 52.85546875 81.3671875 C47.45664744 77.38910864 44.31906293 73.59531463 43 67 C37.39 67 31.78 67 26 67 C26 82.84 26 98.68 26 115 C34.07057711 115.01634666 42.13632393 115.02595005 50.20594788 114.97145844 C53.96423838 114.9479879 57.72164305 114.93663173 61.47998047 114.95532227 C65.10508446 114.97287102 68.72860378 114.95612352 72.35351562 114.91632271 C73.73125481 114.9070811 75.10913271 114.90986939 76.48681641 114.92530632 C85.754995 115.09074212 85.754995 115.09074212 93.59936523 110.73510742 C94.75872295 109.51407182 95.89538 108.27076863 97 107 C97.88051025 106.18837402 98.76102051 105.37674805 99.66821289 104.54052734 C102.14857132 102.16764498 104.60825413 99.77487373 107.0625 97.375 C107.94099609 96.54226562 108.81949219 95.70953125 109.72460938 94.8515625 C110.96114258 93.63726562 110.96114258 93.63726562 112.22265625 92.3984375 C112.97297119 91.67317871 113.72328613 90.94791992 114.49633789 90.20068359 C116.28387802 88.0833995 116.28387802 88.0833995 115.77392578 85.39990234 C115.51853027 84.60793457 115.26313477 83.8159668 115 83 C113.19857939 74.67859898 111.77068294 67.44038099 116.30078125 59.80859375 C120.56339487 53.82771728 125.68111118 48.81352997 133 47 C141.71931613 45.9514025 148.78234929 46.80904469 156 52 C161.34488021 56.76736137 164.62462867 62.11652867 165.31640625 69.2734375 C165.61579156 78.3322576 164.52522565 83.91815977 158.625 90.75 C153.60651047 95.05156245 148.76505008 98.47617991 142 99 C141.16388184 98.78537109 140.32776367 98.57074219 139.46630859 98.34960938 C135.94100519 97.48218071 133.59273894 97.3346119 130 98 C124.23332344 101.60056282 119.77166893 107.19198254 115.25 112.1875 C113.35454222 114.23153113 111.44977139 116.26567914 109.53314209 118.28987122 C108.34799796 119.54662875 107.17596337 120.81593359 106.02008057 122.09965515 C101.20335819 127.29246832 96.92503956 130.60495819 89.71026611 131.33110046 C85.65346741 131.46349878 81.61989905 131.45063538 77.5625 131.390625 C76.07178511 131.38315296 74.58106031 131.37746458 73.09033203 131.37347412 C69.19061565 131.35829323 65.29150711 131.31907846 61.39202881 131.2746582 C56.70054178 131.22629606 52.00885007 131.20813541 47.31718445 131.18484497 C40.21103518 131.14622098 33.10621629 131.06951733 26 131 C26 141.23 26 151.46 26 162 C28.58835693 161.97381592 31.17671387 161.94763184 33.84350586 161.9206543 C42.41685399 161.83762666 50.99022036 161.78250511 59.56386471 161.74093914 C64.75967193 161.7148991 69.95506554 161.67960337 75.15063477 161.62280273 C80.16922099 161.56828334 85.18741059 161.53853743 90.20627022 161.52561378 C92.11637168 161.51640961 94.02645262 161.49843596 95.9363842 161.47134972 C110.45560638 161.27372042 117.75348993 162.72214939 128.34594727 172.8918457 C130.77353402 175.29955089 133.16951704 177.73757406 135.56640625 180.17578125 C136.85303755 181.4698848 138.1405637 182.76309923 139.42893982 184.0554657 C142.79644722 187.43815177 146.15176106 190.83268011 149.50457764 194.22991943 C152.93644661 197.70290936 156.37984984 201.16442252 159.82226562 204.62695312 C166.55943898 211.40686011 173.28377133 218.19934886 180 225 C181.10303467 224.67692871 182.20606934 224.35385742 183.3425293 224.02099609 C190.91461377 221.9072215 197.4997727 222.45044704 204.67578125 225.68359375 C211.19601184 229.37656469 214.88269574 234.36347136 217.33984375 241.39453125 C219.40316611 249.5379396 218.12545523 256.71618439 214 264 C209.66633993 270.01194752 204.13047399 273.19332818 197 275 C189.69047468 276.10268111 183.44484811 274.53834798 177 271 C174.125 268.5625 174.125 268.5625 172 266 C171.278125 265.195625 170.55625 264.39125 169.8125 263.5625 C165.37457505 257.28819232 165.33965909 250.45796794 166 243 C166.64058084 240.99149293 167.30417577 238.99004349 168 237 C160.75326381 229.7301066 153.50383878 222.46290641 146.25095654 215.19914436 C142.8833404 211.82630682 139.516662 208.45254417 136.15209961 205.07666016 C132.90586176 201.81956715 129.65719632 198.56491388 126.40682411 195.31194687 C125.166385 194.06965826 123.92682723 192.82648897 122.68816185 191.58243179 C120.95482434 189.84184905 119.2183965 188.10440704 117.48120117 186.36767578 C116.96834564 185.85122498 116.45549011 185.33477417 115.92709351 184.80267334 C110.96883858 179.8587582 107.91103477 178.70054554 101.0402832 178.68115234 C100.23029877 178.67110672 99.42031433 178.6610611 98.58578491 178.65071106 C95.9074576 178.61981063 93.22923056 178.60282496 90.55078125 178.5859375 C88.69417962 178.56723136 86.83758653 178.54765837 84.98100281 178.5272522 C80.09350621 178.47586643 75.20598203 178.43627523 70.31835938 178.39910889 C64.4545548 178.35207748 58.59088777 178.29045208 52.72719574 178.23126221 C43.81818582 178.14297141 34.9092033 178.0732633 26 178 C26 191.86 26 205.72 26 220 C32.6 220 39.2 220 46 220 C46.66 218.02 47.32 216.04 48 214 C51.57786234 208.39505157 56.48542947 204.38981613 62.890625 202.41796875 C70.97929135 200.81521449 78.94226675 201.61370628 86 206 C92.61679258 211.9407049 96.17815305 217.73310266 96.95703125 226.609375 C97.09919143 234.51865019 94.34083145 241.17860294 89 247 C82.04243491 252.31001368 75.78659662 254.58577311 67 254 C58.91479079 252.17939438 52.61446013 248.85082491 48.0625 241.8125 C46 238.34405145 46 238.34405145 46 236 C39.4 236 32.8 236 26 236 C26 253.49 26 270.98 26 289 C39.56382745 289.0546848 39.56382745 289.0546848 53.12695312 289.03515625 C58.6599031 289.01072105 64.19192277 288.99494314 69.72485352 289.03076172 C74.18633747 289.05909991 78.64619876 289.04857604 83.10759926 289.01119995 C84.8088173 289.00375823 86.510156 289.01027739 88.21126366 289.03103638 C97.19892856 289.54561467 97.19892856 289.54561467 105.07925415 286.2512207 C106.34950849 284.2005481 107.13752313 282.24247083 108 280 C112.83677883 274.4977083 119.68682929 271.64733787 126.90234375 271.0078125 C134.68974075 270.97880916 141.27250255 273.7453166 147 279 C152.31001368 285.95756509 154.58577311 292.21340338 154 301 C152.19794478 309.00282791 148.89979087 315.34562861 141.9375 319.875 C135.4261707 323.76890386 128.42242071 323.7430962 121 323 C114.2464636 320.94537706 108.64678999 317.12315751 105 311 C104.34 309.02 103.68 307.04 103 305 C77.59 305 52.18 305 26 305 C26 321.5 26 338 26 355 C47.12 354.67 68.24 354.34 90 354 C90.99 352.02 91.98 350.04 93 348 C96.31591023 342.96472891 101.13656577 339.27716834 106.890625 337.375 C116.30929261 335.7005702 124.28974829 336.85983219 132.1875 342.125 C136.87632703 346.32700892 140.61066235 353.10662352 141.23828125 359.3828125 C141.4951211 368.87236889 138.96421718 375.5952897 132.4921875 382.56640625 C127.4764322 387.38520781 121.32927326 388.8708694 114.51171875 389.07421875 C107.29096433 388.68117613 101.42735855 386.2805766 96.17578125 381.25390625 C93.51383153 378.25679579 91.81636651 375.63273302 90 372 C58.32 371.505 58.32 371.505 26 371 C26 383.87 26 396.74 26 410 C29.0834375 409.95359375 32.166875 409.9071875 35.34375 409.859375 C38.34894161 409.82812922 41.35411473 409.80387002 44.359375 409.78027344 C46.43888525 409.76022841 48.51833963 409.73298487 50.59765625 409.69824219 C53.59649487 409.64941052 56.59458463 409.62695972 59.59375 409.609375 C60.51490601 409.58872986 61.43606201 409.56808472 62.38513184 409.54681396 C69.85734548 409.54424948 74.89804796 411.3307142 80.57299805 416.21411133 C81.29527588 416.9955249 82.01755371 417.77693848 82.76171875 418.58203125 C83.57060547 419.43087891 84.37949219 420.27972656 85.21289062 421.15429688 C86.87781474 422.94274338 88.53921648 424.7344748 90.19726562 426.52929688 C91.00228516 427.37169922 91.80730469 428.21410156 92.63671875 429.08203125 C93.35561279 429.85780518 94.07450684 430.6335791 94.81518555 431.43286133 C96.90711406 433.29470496 96.90711406 433.29470496 99.59790039 432.75976562 C100.39059326 432.50904297 101.18328613 432.25832031 102 432 C111.34551092 431.20380424 118.39433212 432.23172628 125.75 438.25 C132.25832087 446.2046144 134.92503883 452.6341237 134 463 C132.23436779 471.13622408 127.90351941 476.46278127 121 481 C113.49372964 484.70470763 105.71035501 484.76319734 97.7734375 482.3125 C90.99016686 479.37919378 86.76990323 473.96886993 83.0625 467.75 C81.51423329 462.28552925 80.68242267 455.62226002 82.67163086 450.15356445 C83.79439236 447.03735205 84.34014913 444.97899476 83.23071289 441.78588867 C79.38664559 435.19513984 73.99509999 430.04746313 67 427 C53.79273944 424.1093833 39.4068834 425.31705555 26 426 C26.01571045 426.59312988 26.0314209 427.18625977 26.04760742 427.79736328 C26.51762125 448.29155281 25.06817854 466.6367451 10.5625 482.5 C-0.85514758 494.4144019 -14.96949812 502.0549699 -31.71362305 502.43139648 C-50.47566847 502.47249445 -65.02160012 498.06169308 -78.8125 484.6875 C-82.36979173 481.090462 -84.56124007 478.05373958 -86.5625 473.4375 C-87.96602003 470.83914659 -88.92549755 469.33090615 -91.80908203 468.44287109 C-95.66914375 467.77551442 -99.53861098 467.5606107 -103.4453125 467.33984375 C-109.38134084 466.99478294 -114.5398854 465.29308777 -120 463 C-120.84691406 462.65195312 -121.69382813 462.30390625 -122.56640625 461.9453125 C-137.66178823 455.09451317 -148.21356494 442.53122573 -154.78515625 427.53125 C-156.63032088 422.16781327 -157.59292483 416.73450431 -158.45703125 411.140625 C-158.66453694 408.1433601 -158.66453694 408.1433601 -160 407 C-162.18813803 407.03338352 -164.37573429 407.10313052 -166.5625 407.1875 C-183.28503796 407.44989347 -198.73046483 401.45469313 -211.3984375 390.5390625 C-222.85164002 379.36101199 -230.80636161 364.75562886 -231.265625 348.58984375 C-231.27086229 346.70572925 -231.26553862 344.82155771 -231.25 342.9375 C-231.26160156 341.52500977 -231.26160156 341.52500977 -231.2734375 340.08398438 C-231.26136405 335.74659686 -231.0891644 331.81955379 -229.921875 327.62890625 C-229.0187329 324.07374094 -228.58917165 322.35437612 -230 319 C-232.23379245 316.93931725 -232.23379245 316.93931725 -235.0625 315.1875 C-252.81425049 302.85735372 -263.88827077 284.12599872 -268.50390625 263.140625 C-272.30761752 239.06043711 -267.78188027 215.48355325 -254.0546875 195.11328125 C-252.13073615 192.63239662 -250.13007307 190.30595066 -248 188 C-246.80697266 186.70449219 -246.80697266 186.70449219 -245.58984375 185.3828125 C-240.50812567 180.0890289 -235.31050921 175.74972286 -229 172 C-229.144375 171.46117187 -229.28875 170.92234375 -229.4375 170.3671875 C-233.8937185 150.62366387 -231.72145917 131.00252473 -221.14892578 113.76025391 C-213.02814355 101.31851147 -200.11545623 92.41260376 -186 88 C-185.34644531 87.77699219 -184.69289063 87.55398437 -184.01953125 87.32421875 C-175.9886372 85.04077305 -167.26482554 85.83951795 -159 86 C-158.87044922 84.71029297 -158.87044922 84.71029297 -158.73828125 83.39453125 C-156.56112136 65.07842463 -149.10047761 50.11274509 -135 38 C-122.34016412 28.34993193 -108.65913478 24.68083195 -93 24 C-92.01 24.33 -91.02 24.66 -90 25 C-89.814375 24.195625 -89.62875 23.39125 -89.4375 22.5625 C-84.11061734 9.36109515 -71.18427086 -0.92724383 -58.51171875 -6.546875 C-39.15366775 -13.96725103 -17.18501898 -11.48225227 0 0 Z M-70.625 21.2265625 C-72.27075549 23.34921304 -73.10540603 25.47965351 -74 28 C-72.96101562 28.54527344 -71.92203125 29.09054688 -70.8515625 29.65234375 C-51.22051351 40.17831852 -39.96963029 52.90346525 -33 74 C-32.67 74.99 -32.34 75.98 -32 77 C-31.85408434 79.30939588 -31.77913516 81.62368241 -31.75 83.9375 C-31.71132813 85.77634766 -31.71132813 85.77634766 -31.671875 87.65234375 C-32.01772488 91.18083601 -32.4443121 92.58762171 -35 95 C-38.45570193 95.35996895 -40.70024471 95.09991843 -44 94 C-44.09796875 93.04480469 -44.1959375 92.08960937 -44.296875 91.10546875 C-46.16071831 74.98965113 -51.10973786 60.68050292 -64 50 C-75.61054242 41.52744202 -87.84954547 38.64635691 -102 40 C-115.06572344 42.44801249 -126.87679412 49.37722458 -134.6171875 60.27734375 C-136.2174393 62.79714323 -137.6353519 65.34564112 -139 68 C-139.40476562 68.77472656 -139.80953125 69.54945312 -140.2265625 70.34765625 C-143.44012027 77.64173881 -143.50477681 84.97089281 -143.49731445 92.82739258 C-143.50851318 93.70935303 -143.51971191 94.59131348 -143.53125 95.5 C-143.52673828 96.2940625 -143.52222656 97.088125 -143.51757812 97.90625 C-144 100 -144 100 -145.84960938 101.76171875 C-148.77520571 103.44639457 -150.65989305 103.33401069 -154 103 C-154.91910156 102.67128906 -155.83820313 102.34257813 -156.78515625 102.00390625 C-167.8283562 98.55542218 -179.75118612 101.34050198 -189.82421875 106.42578125 C-202.81537342 113.94084382 -210.15760465 123.85300203 -215 138 C-216.07328539 142.13788645 -216.16586129 146.10784704 -216.1875 150.375 C-216.20167969 151.64085937 -216.21585938 152.90671875 -216.23046875 154.2109375 C-215.98885461 158.18323775 -215.22893265 161.24034042 -214 165 C-212.72125 164.71125 -211.4425 164.4225 -210.125 164.125 C-209.29355469 163.94453125 -208.46210938 163.7640625 -207.60546875 163.578125 C-205.97751581 163.21690006 -204.35388353 162.83484415 -202.73828125 162.421875 C-197.33967436 161.13867472 -192.09069172 160.76310132 -186.5625 160.6875 C-185.86374756 160.66993652 -185.16499512 160.65237305 -184.44506836 160.63427734 C-181.52859636 160.63783098 -179.49865702 160.65923438 -177.05078125 162.33203125 C-175.39800452 164.9555839 -175.62285481 166.9828385 -176 170 C-177.85342775 172.55949546 -178.93756393 172.97918798 -182 174 C-183.89483873 174.10351168 -185.79100605 174.18337286 -187.6875 174.25 C-207.841148 175.75032713 -224.78457312 185.6532942 -238.25 200.4375 C-251.59389646 216.82606016 -255.53395311 235.39167343 -254 256 C-251.53336024 274.81908405 -240.47857751 291.58826763 -226.11328125 303.57421875 C-224.07792473 305.18156417 -224.07792473 305.18156417 -221 307 C-217.64820682 305.88273561 -216.98292595 305.04550033 -214.8125 302.375 C-203.12979728 288.61756783 -203.12979728 288.61756783 -195.98828125 287.7578125 C-193.8125 287.6875 -193.8125 287.6875 -190 288 C-188 290 -188 290 -187.625 293.375 C-188 297 -188 297 -189.5 299.0625 C-190.92277212 300.1651484 -192.35212929 301.2597049 -193.80078125 302.328125 C-205.46614471 310.93557765 -212.59483901 320.56403578 -216 335 C-217.51037039 348.46262838 -214.80565985 360.94185236 -206.6875 372 C-197.86062283 382.14316587 -187.59891904 389.79832811 -173.86499023 391.22119141 C-159.3750837 391.99027735 -148.13126853 389.26553935 -136 381 C-135.67 380.67 -135.34 380.34 -135 380 C-129.1589404 379.62913907 -129.1589404 379.62913907 -127 380 C-124.65450326 383.51824511 -124.42008597 384.85775694 -125 389 C-128.45774676 393.04260727 -132.11038643 395.39019907 -136.8125 397.8125 C-137.97394531 398.41707031 -139.13539063 399.02164062 -140.33203125 399.64453125 C-141.21246094 400.09183594 -142.09289062 400.53914063 -143 401 C-143.64533292 413.90665834 -140.0976132 425.72288304 -131.73828125 435.69921875 C-121.82445863 446.111067 -111.12453258 451.88983034 -96.67456055 452.3515625 C-83.83562482 452.48607498 -71.38422032 449.37153467 -61.875 440.125 C-57.92310412 437.20403348 -54.75281813 437.52471819 -50 438 C-49.33416849 441.02590754 -48.90546622 443.89614074 -49 447 C-50.8125 449.625 -50.8125 449.625 -54 452 C-54.72960937 452.55429687 -55.45921875 453.10859375 -56.2109375 453.6796875 C-61.83518668 457.81359936 -67.67001786 461.07743378 -74 464 C-71.08185512 472.64804395 -63.28576274 478.49540645 -55.51171875 482.78125 C-44.63045245 488.06111794 -32.24963366 488.91290594 -20.625 485.4375 C-10.56115591 481.52907882 -2.29041461 474.77133244 4 466 C5.25633725 462.82363864 5.25633725 462.82363864 6 460 C5.09636719 459.95101563 4.19273437 459.90203125 3.26171875 459.8515625 C1.49248047 459.73941406 1.49248047 459.73941406 -0.3125 459.625 C-1.48425781 459.55539062 -2.65601563 459.48578125 -3.86328125 459.4140625 C-7 459 -7 459 -10 457 C-10.61650485 451.45145631 -10.61650485 451.45145631 -10 449 C-6 446 -6 446 10 445 C10 426.85 10 408.7 10 390 C5.58625 389.896875 1.1725 389.79375 -3.375 389.6875 C-4.74575684 389.64197998 -6.11651367 389.59645996 -7.52880859 389.54956055 C-16.79320547 389.44551899 -23.27537948 391.05524473 -30.4375 397.03515625 C-34.50301868 402.31016674 -35.97539041 406.77851372 -36.7109375 413.3984375 C-37 416 -37 416 -38 419 C-39.43267304 419.27632268 -40.87163335 419.52019671 -42.3125 419.75 C-43.51326172 419.95882812 -43.51326172 419.95882812 -44.73828125 420.171875 C-47 420 -47 420 -48.765625 418.3359375 C-51.37268666 413.40232082 -50.66414993 407.65659971 -49.34375 402.375 C-45.07963813 390.61193277 -37.34565447 383.7372628 -26.4375 378.1875 C-15.38128822 374.36808138 -0.64283392 375.42571336 10 375 C10 341.01 10 307.02 10 272 C1.01136719 271.97421875 -7.97726562 271.9484375 -17.23828125 271.921875 C-23.64358581 271.89352116 -30.04883975 271.86266283 -36.45411015 271.8281765 C-44.7587144 271.78379886 -53.06320822 271.74539713 -61.36791992 271.72900391 C-67.9416051 271.71600883 -74.51505975 271.68909955 -81.08861512 271.64538693 C-84.57025141 271.6227233 -88.05160287 271.60709221 -91.53331947 271.60811615 C-95.41738978 271.60899797 -99.30087604 271.57881888 -103.18481445 271.54589844 C-104.92189919 271.55344398 -104.92189919 271.55344398 -106.69407654 271.56114197 C-107.74996979 271.54722916 -108.80586304 271.53331635 -109.89375305 271.51898193 C-110.81278066 271.51529476 -111.73180826 271.51160759 -112.67868519 271.50780869 C-115 271 -115 271 -116.80351543 269.12771988 C-118.2687658 266.52205122 -118.30257456 264.95010195 -118 262 C-117.67 261.01 -117.34 260.02 -117 259 C-114.02338831 258.0077961 -112.04004382 257.86378191 -108.93171692 257.84178162 C-107.88641469 257.83200759 -106.84111246 257.82223356 -105.76413441 257.81216335 C-104.61325179 257.8063931 -103.46236917 257.80062284 -102.27661133 257.79467773 C-101.0471387 257.78464501 -99.81766607 257.77461229 -98.5509367 257.76427555 C-95.22369809 257.73805159 -91.89648466 257.71604791 -88.56920624 257.69608307 C-85.44760042 257.6764639 -82.32603876 257.65155368 -79.20446777 257.6270752 C-70.07385022 257.55856258 -60.94317049 257.49855144 -51.8125 257.4375 C-31.414375 257.293125 -11.01625 257.14875 10 257 C10 215.42 10 173.84 10 131 C-20.69 130.505 -20.69 130.505 -52 130 C-64.31857319 127.94690447 -74.26000847 125.24588958 -82 115 C-86.856947 107.08641435 -90.73376185 97.4517985 -89 88 C-87.03016724 85.44267327 -86.34201987 85.05093913 -83.0625 84.5625 C-80 85 -80 85 -77.75 86.3125 C-75.87366536 89.1940139 -75.56976167 90.89462694 -75.0625 94.25 C-73.88095928 101.83407764 -71.04671228 106.6403102 -65 111.375 C-59.91575501 115.04467683 -55.64970859 116.25105051 -49.3737793 116.22705078 C-48.40708061 116.22748886 -48.40708061 116.22748886 -47.42085266 116.22793579 C-45.30516779 116.22655005 -43.18984158 116.21102507 -41.07421875 116.1953125 C-39.60163058 116.19157967 -38.12903991 116.18873397 -36.65644836 116.18673706 C-32.79142328 116.17912183 -28.92654987 116.15949163 -25.06158447 116.1373291 C-20.41846602 116.11321645 -15.7752967 116.10407963 -11.13213348 116.09242249 C-4.08798368 116.07306584 2.95583368 116.03472884 10 116 C10 99.5 10 83 10 66 C4.39 65.67 -1.22 65.34 -7 65 C-7.99 64.67 -8.98 64.34 -10 64 C-10 60.37 -10 56.74 -10 53 C-7.40742331 52.13580777 -5.65962293 51.82419068 -2.98828125 51.68359375 C-2.23095703 51.64169922 -1.47363281 51.59980469 -0.69335938 51.55664062 C0.09232422 51.51732422 0.87800781 51.47800781 1.6875 51.4375 C2.48478516 51.39431641 3.28207031 51.35113281 4.10351562 51.30664062 C6.06881447 51.20072632 8.03438496 51.09987449 10 51 C11.04829746 40.68009389 7.84787231 31.41889575 1.6875 23.125 C-7.5959638 12.2244167 -18.65509743 5.95150796 -33.02734375 4.74609375 C-48.53890539 4.17432394 -59.81588262 10.57334585 -70.625 21.2265625 Z " fill="#FA8175" transform="translate(274,10)"/>
<path d="M0 0 C11.3182279 -0.11609114 22.63631305 -0.2048155 33.95501614 -0.25906086 C39.21135497 -0.28510224 44.46728505 -0.32040052 49.72338867 -0.37719727 C54.80032912 -0.43171174 59.87687755 -0.46146157 64.95408821 -0.47438622 C66.88651763 -0.48359126 68.81892673 -0.50156661 70.75118828 -0.52865028 C85.35059473 -0.72505814 92.69440746 0.66828602 103.34594727 10.8918457 C105.77357107 13.29951364 108.16951705 15.73757408 110.56640625 18.17578125 C111.85303755 19.4698848 113.1405637 20.76309923 114.42893982 22.0554657 C117.79644722 25.43815177 121.15176106 28.83268011 124.50457764 32.22991943 C127.93644661 35.70290936 131.37984984 39.16442252 134.82226562 42.62695312 C141.55943898 49.40686011 148.28377133 56.19934886 155 63 C156.10303467 62.67692871 157.20606934 62.35385742 158.3425293 62.02099609 C165.91461377 59.9072215 172.4997727 60.45044704 179.67578125 63.68359375 C186.19601184 67.37656469 189.88269574 72.36347136 192.33984375 79.39453125 C194.40316611 87.5379396 193.12545523 94.71618439 189 102 C184.66633993 108.01194752 179.13047399 111.19332818 172 113 C164.69047468 114.10268111 158.44484811 112.53834798 152 109 C149.125 106.5625 149.125 106.5625 147 104 C146.278125 103.195625 145.55625 102.39125 144.8125 101.5625 C140.37457505 95.28819232 140.33965909 88.45796794 141 81 C141.64058084 78.99149293 142.30417577 76.99004349 143 75 C135.75326381 67.7301066 128.50383878 60.46290641 121.25095654 53.19914436 C117.8833404 49.82630682 114.516662 46.45254417 111.15209961 43.07666016 C107.90586176 39.81956715 104.65719632 36.56491388 101.40682411 33.31194687 C100.166385 32.06965826 98.92682723 30.82648897 97.68816185 29.58243179 C95.95482434 27.84184905 94.2183965 26.10440704 92.48120117 24.36767578 C91.96834564 23.85122498 91.45549011 23.33477417 90.92709351 22.80267334 C85.97084622 17.86076003 82.92435558 16.70231945 76.05615234 16.69702148 C75.2477742 16.68858215 74.43939606 16.68014282 73.60652161 16.67144775 C70.93298768 16.64564429 68.25956411 16.63352539 65.5859375 16.62109375 C63.73173135 16.60492464 61.87753376 16.58774527 60.02334595 16.56959534 C55.14115339 16.52387807 50.25894956 16.48908454 45.37664795 16.45739746 C37.5540609 16.40554274 29.73159913 16.3405527 21.90916824 16.26918221 C19.16979337 16.24627235 16.43043462 16.23005234 13.69100952 16.21446228 C12.02235739 16.20106164 10.35370695 16.18744737 8.68505859 16.17358398 C7.91725571 16.17097061 7.14945282 16.16835724 6.35838318 16.16566467 C1.11363685 16.11363685 1.11363685 16.11363685 0 15 C-0.07313567 12.46950598 -0.09247527 9.96695163 -0.0625 7.4375 C-0.05798828 6.72658203 -0.05347656 6.01566406 -0.04882812 5.28320312 C-0.03700864 3.52209987 -0.01907263 1.76103964 0 0 Z " fill="#004777" transform="translate(299,172)"/>
<path d="M0 0 C5.27759626 3.79566253 9.77062659 9.0692701 11.15625 15.55078125 C11.93199149 23.57635372 12.13129464 30.89037947 7.15625 37.55078125 C2.12428251 43.37726992 -3.95633939 47.94005641 -11.84375 48.55078125 C-12.67986816 48.33615234 -13.51598633 48.12152344 -14.37744141 47.90039062 C-17.90274481 47.03296196 -20.25101106 46.88539315 -23.84375 47.55078125 C-29.61042656 51.15134407 -34.07208107 56.74276379 -38.59375 61.73828125 C-40.48920778 63.78231238 -42.39397861 65.81646039 -44.31060791 67.84065247 C-45.49575204 69.09741 -46.66778663 70.36671484 -47.82366943 71.6504364 C-52.65991216 76.86429407 -56.92774603 80.16124531 -64.17230225 80.88188171 C-68.28895969 81.0143712 -72.38274514 81.0013803 -76.5 80.94140625 C-78.01313526 80.93393447 -79.52628027 80.92824597 -81.03942871 80.92425537 C-84.99832453 80.90907248 -88.95662185 80.86985585 -92.9152832 80.82543945 C-96.96427314 80.78432676 -101.01336095 80.76621041 -105.0625 80.74609375 C-112.98985624 80.7033529 -120.91672841 80.63519272 -128.84375 80.55078125 C-128.87060095 78.07154324 -128.89051547 75.59259285 -128.90625 73.11328125 C-128.91881836 72.05270508 -128.91881836 72.05270508 -128.93164062 70.97070312 C-128.94028588 69.16384566 -128.89595011 67.35690522 -128.84375 65.55078125 C-127.84375 64.55078125 -127.84375 64.55078125 -125.38560486 64.43966675 C-124.29276688 64.4452359 -123.19992889 64.45080505 -122.07397461 64.45654297 C-120.22085915 64.4605159 -120.22085915 64.4605159 -118.33030701 64.46456909 C-117.66532133 64.46761929 -117.00033566 64.47066948 -116.3151989 64.4738121 C-112.79406237 64.48514017 -109.27305601 64.46464621 -105.75195312 64.44921875 C-101.27067619 64.43096719 -96.79008391 64.42210791 -92.30883789 64.45117188 C-88.68912432 64.47381166 -85.07090326 64.46214733 -81.45129585 64.42816544 C-80.07632436 64.42142563 -78.70123152 64.42699543 -77.32636833 64.44552231 C-68.07585246 64.63345236 -68.07585246 64.63345236 -60.24658203 60.28808594 C-59.08649563 59.06631545 -57.94911315 57.82227481 -56.84375 56.55078125 C-55.96323975 55.73915527 -55.08272949 54.9275293 -54.17553711 54.09130859 C-51.69517868 51.71842623 -49.23549587 49.32565498 -46.78125 46.92578125 C-45.46350586 45.67667969 -45.46350586 45.67667969 -44.11914062 44.40234375 C-42.88260742 43.18804687 -42.88260742 43.18804687 -41.62109375 41.94921875 C-40.87077881 41.22395996 -40.12046387 40.49870117 -39.34741211 39.75146484 C-37.55987198 37.63418075 -37.55987198 37.63418075 -38.06982422 34.95068359 C-38.32521973 34.15871582 -38.58061523 33.36674805 -38.84375 32.55078125 C-40.64517061 24.22938023 -42.07306706 16.99116224 -37.54296875 9.359375 C-28.50561907 -3.32093735 -14.09874074 -8.12508598 0 0 Z " fill="#32C6C9" transform="translate(427.84375,60.44921875)"/>
<path d="M0 0 C4.68882703 4.20200892 8.42316235 10.98162352 9.05078125 17.2578125 C9.3076211 26.74736889 6.77671718 33.4702897 0.3046875 40.44140625 C-4.7110678 45.26020781 -10.85822674 46.7458694 -17.67578125 46.94921875 C-24.89653567 46.55617613 -30.76014145 44.1555766 -36.01171875 39.12890625 C-38.60853914 36.20512543 -40.46971335 33.38443224 -42.1875 29.875 C-42.98707626 29.86469254 -43.78665253 29.85438507 -44.61045837 29.84376526 C-52.13017296 29.74595918 -59.64980193 29.64346935 -67.16937923 29.53566074 C-71.0356601 29.48039645 -74.90194848 29.426971 -78.76831055 29.37768555 C-82.49660087 29.3300935 -86.22479652 29.27775285 -89.95297432 29.22205925 C-91.37836933 29.20161222 -92.80379032 29.18290309 -94.22923088 29.16592598 C-96.21920541 29.14193404 -98.20909655 29.11129864 -100.19897461 29.08032227 C-101.33370712 29.06477798 -102.46843964 29.0492337 -103.63755798 29.03321838 C-106.1875 28.875 -106.1875 28.875 -107.1875 27.875 C-107.1875 22.925 -107.1875 17.975 -107.1875 12.875 C-85.7375 12.545 -64.2875 12.215 -42.1875 11.875 C-41.1975 9.895 -40.2075 7.915 -39.1875 5.875 C-35.87158977 0.83972891 -31.05093423 -2.84783166 -25.296875 -4.75 C-15.87820739 -6.4244298 -7.89775171 -5.26516781 0 0 Z " fill="#32C6C9" transform="translate(406.1875,352.125)"/>
<path d="M0 0 C1.03833984 0.36544922 1.03833984 0.36544922 2.09765625 0.73828125 C4.02734375 1.51171875 4.02734375 1.51171875 7.0625 3.3125 C8.109375 5.83984375 8.109375 5.83984375 8.0625 8.3125 C6.375 11.1875 6.375 11.1875 3.0625 13.3125 C0.07645536 13.41624475 -2.71612308 13.09765273 -5.6796875 12.72265625 C-16.68305928 11.33733966 -25.6765027 11.94548733 -34.75 18.625 C-38.25047241 21.50667139 -40.57061078 24.42403914 -42.9375 28.3125 C-43.72125 29.055 -44.505 29.7975 -45.3125 30.5625 C-55.15233154 40.87089495 -57.33259492 52.30734481 -57.46484375 66.0234375 C-57.49771484 67.36921875 -57.49771484 67.36921875 -57.53125 68.7421875 C-57.53833984 69.54897949 -57.54542969 70.35577148 -57.55273438 71.18701172 C-58.03411955 73.84623719 -58.7374749 74.76617863 -60.9375 76.3125 C-63.69163908 76.11326441 -66.23127108 75.77842523 -68.9375 75.3125 C-85.99756254 73.34465675 -99.44103877 75.765131 -113.6328125 86.31640625 C-123.89832985 95.20738823 -128.54933482 108.32423322 -130.9375 121.3125 C-133.9075 121.8075 -133.9075 121.8075 -136.9375 122.3125 C-141.0522711 109.44149598 -139.5909301 96.51736721 -133.51171875 84.4921875 C-125.87037665 71.26299058 -115.54093695 63.90688541 -101.25 59.0625 C-93.17008541 57.24167418 -84.68590227 57.49987375 -76.9375 60.3125 C-73.78277074 60.62797293 -71.71106821 60.63680899 -68.78515625 59.41015625 C-65.72571928 55.9367574 -66.47706405 51.90184643 -66.5 47.4375 C-66.17329201 32.27721625 -61.3849676 20.27228485 -50.3125 9.625 C-36.00306046 -2.70180635 -17.70455884 -6.41469523 0 0 Z " fill="#D8484E" transform="translate(196.9375,52.6875)"/>
<path d="M0 0 C5.93070462 4.35085519 10.3828391 10.08323493 11.84765625 17.35546875 C12.9403232 25.51977796 11.35842814 31.49611315 6.84765625 38.35546875 C2.78831049 43.26941362 -2.10660805 46.34022352 -8.15234375 48.35546875 C-15.94254688 49.06898585 -22.45326168 48.60097755 -29.15234375 44.35546875 C-31.96484375 41.91796875 -31.96484375 41.91796875 -34.15234375 39.35546875 C-34.87421875 38.55109375 -35.59609375 37.74671875 -36.33984375 36.91796875 C-40.60407994 30.88922104 -40.92202184 24.52614059 -40.15234375 17.35546875 C-38.41035551 10.17889445 -35.06618185 4.80634481 -29.15234375 0.35546875 C-20.27752943 -4.77262225 -8.97127943 -5.10276058 0 0 Z " fill="#33C7CA" transform="translate(463.15234375,404.64453125)"/>
<path d="M0 0 C6.94435971 6.23480202 10.22770233 12.10795043 10.95703125 21.3828125 C11.08943503 29.44740666 8.53079471 35.17677247 3 41 C-2.51050378 46.08463346 -8.0983421 47.64530383 -15.4375 48.3125 C-22.78248542 47.66820303 -29.64782509 45.20572236 -35 40 C-41.00835215 32.04593796 -41.92006414 24.88804561 -41 15 C-38.70047912 7.25587364 -34.15402033 1.87793492 -27.16015625 -2.02734375 C-18.35628224 -5.93417537 -8.13123337 -5.05346074 0 0 Z " fill="#FFC501" transform="translate(497,327)"/>
<path d="M0 0 C6.27149848 4.453496 9.9690757 8.99710864 11.3125 16.75 C12.58301817 25.62190894 10.93171234 31.71648381 5.703125 38.98828125 C0.89572092 44.66675167 -4.70492804 47.46379018 -12.16015625 48.21875 C-20.30158909 48.55390332 -26.84884277 45.93752132 -33.16796875 40.83984375 C-38.55265199 35.43219811 -40.31442169 29.51926445 -40.625 22 C-40.29038082 13.67973926 -37.80210963 7.29845261 -31.6875 1.5625 C-22.09138133 -5.72229547 -10.29945425 -6.31570308 0 0 Z " fill="#FFC501" transform="translate(471,135)"/>
<path d="M0 0 C6.61679258 5.9407049 10.17815305 11.73310266 10.95703125 20.609375 C11.09919143 28.51865019 8.34083145 35.17860294 3 41 C-3.95756509 46.31001368 -10.21340338 48.58577311 -19 48 C-26.97085456 46.20514445 -33.32223449 42.90719567 -37.875 36 C-41.9386229 29.32597033 -42.09057661 20.78603364 -40.38671875 13.30859375 C-37.88646856 6.09421546 -33.67110949 1.67466392 -27.08984375 -2.09375 C-18.34144626 -5.97394273 -8.06011252 -5.00926001 0 0 Z " fill="#FEC402" transform="translate(360,216)"/>
<path d="M0 0 C7.33645857 3.79380831 12.465125 10.52037501 15.0625 18.3125 C15.8371514 25.94472119 15.12488127 32.6988119 11.0625 39.3125 C5.90497586 45.48892403 0.09409959 49.27849167 -7.9375 50.3125 C-15.98784922 50.5598571 -22.88390858 49.064315 -28.87890625 43.515625 C-35.24979231 36.65262456 -37.49837215 30.53147219 -37.21875 21.17578125 C-36.53107183 14.17483541 -32.94890798 9.01069498 -27.9375 4.3125 C-19.50123524 -1.88687637 -10.04901522 -4.1884971 0 0 Z " fill="#FEC402" transform="translate(392.9375,443.6875)"/>
<path d="M0 0 C5.9072361 5.6090067 8.64671339 12.16508655 9.26171875 20.16015625 C8.7665008 27.58842544 6.25582099 34.50469702 1.01171875 39.91015625 C-6.8335551 45.94257797 -14.18408854 46.89170374 -23.98828125 45.91015625 C-31.72695584 43.55582551 -37.24772378 38.93131749 -41.10546875 31.86328125 C-44.17683428 25.06822478 -43.87648677 16.70779605 -41.48828125 9.78515625 C-38.63212391 3.29572455 -33.75556386 -1.00256644 -27.36328125 -3.96484375 C-17.59768252 -7.22004333 -8.4323246 -6.1615011 0 0 Z " fill="#FEC402" transform="translate(418.98828125,287.08984375)"/>
<path d="M0 0 C6.01194752 4.33366007 9.19332818 9.86952601 11 17 C12.21952206 25.08404829 10.30712636 32.41212974 5.52734375 39.04296875 C0.63982498 44.46199075 -5.32727622 47.29509455 -12.51171875 48.37890625 C-20.18326397 48.75224676 -27.01368801 46.53187321 -32.875 41.5625 C-33.57625 40.716875 -34.2775 39.87125 -35 39 C-35.721875 38.195625 -36.44375 37.39125 -37.1875 36.5625 C-41.61963928 30.29637205 -41.80309084 23.45307476 -41 16 C-40.05131401 13.02190841 -38.73851781 10.58657528 -37 8 C-36.443125 7.13375 -35.88625 6.2675 -35.3125 5.375 C-25.26756351 -4.94142126 -12.70569933 -7.19633727 0 0 Z " fill="#32C6C9" transform="translate(481,237)"/>
<path d="M0 0 C6.70691271 3.46867457 10.78937673 7.51771186 14.125 14.3125 C16.30188039 21.28143923 16.15685036 28.9813816 13.125 35.625 C9.35001681 42.20214159 4.50994856 46.7648317 -2.6875 49.3125 C-10.28743304 51.19205333 -18.15597626 50.57191472 -25.0234375 46.671875 C-29.64038498 43.28221736 -32.99839034 39.2944001 -35.3125 34.0625 C-36.58498466 25.5792689 -36.86835492 17.12208522 -32.875 9.3125 C-24.95132928 -0.64868604 -12.02771445 -5.07291358 0 0 Z " fill="#FEC402" transform="translate(351.875,44.6875)"/>
<path d="M0 0 C6.35747528 1.56174364 11.31567678 4.09646705 16.625 7.875 C17.676875 8.6175 18.72875 9.36 19.8125 10.125 C28.40291552 18.5245174 33.86131584 28.84697451 34.625 40.875 C34.71974609 41.86693359 34.71974609 41.86693359 34.81640625 42.87890625 C35.40006957 53.10242825 31.85227578 63.80867494 25.625 71.875 C25.18414062 72.47699219 24.74328125 73.07898438 24.2890625 73.69921875 C17.91791646 81.81275003 8.45708362 87.06925906 -1.375 89.875 C-12.07957238 91.13576075 -12.07957238 91.13576075 -16.71484375 88.58984375 C-18.375 86.875 -18.375 86.875 -18.9375 82.9375 C-18.74448924 79.93204666 -18.46837686 79.00172574 -16.625 76.5 C-12.58167242 74.47833621 -8.83042888 74.05413 -4.3828125 73.42578125 C2.37497251 72.18831672 7.15598969 69.06871469 11.625 63.875 C12.0684375 63.36066406 12.511875 62.84632813 12.96875 62.31640625 C18.09493779 55.86396638 19.14672609 48.45059157 18.93359375 40.3515625 C17.93985828 32.37652091 13.28438769 26.31245092 7.625 20.875 C2.16212236 16.63848264 -2.67143486 14.95056515 -9.5 14.5 C-12.7317909 14.2079707 -14.19268155 13.9878638 -17 12.25 C-18.94485817 8.89069952 -18.92002111 6.69014776 -18.375 2.875 C-14.27329334 -3.79027332 -6.51428275 -1.28137246 0 0 Z " fill="#FA8175" transform="translate(115.375,133.125)"/>
<path d="M0 0 C0.73528427 -0.0065712 1.47056854 -0.0131424 2.22813416 -0.01991272 C4.65998437 -0.03961536 7.09177302 -0.05129946 9.52368164 -0.0612793 C10.76977801 -0.06739259 10.76977801 -0.06739259 12.04104805 -0.07362938 C16.43524043 -0.09447386 20.82940171 -0.10878445 25.22363281 -0.11816406 C29.7645555 -0.12924519 34.3049904 -0.16366892 38.84574032 -0.20333576 C42.33644025 -0.22945571 45.8270229 -0.23785159 49.31781197 -0.24144554 C50.99198272 -0.2463209 52.66614791 -0.25796189 54.34022331 -0.27648354 C56.68163919 -0.3007852 59.02177836 -0.29992746 61.36328125 -0.29296875 C62.05484314 -0.30577881 62.74640503 -0.31858887 63.45892334 -0.33178711 C66.76445513 -0.2959588 68.49648273 -0.00845388 71.18043518 1.98371887 C73.44258331 5.15219875 73.22916337 7.38337316 72.74633789 11.17700195 C70.91518582 13.79293348 69.83665423 14.14689651 66.74633789 15.17700195 C64.50424908 15.27505481 62.2593596 15.31250179 60.01513672 15.31884766 C58.99499985 15.3240593 58.99499985 15.3240593 57.95425415 15.32937622 C56.47776416 15.33672432 55.00126319 15.34207475 53.52475929 15.34566689 C51.18248741 15.35284722 48.84042323 15.36852702 46.49821472 15.38700867 C39.83868319 15.43939269 33.17926422 15.48740885 26.51953125 15.50292969 C22.44393235 15.51305004 18.36885497 15.54247876 14.29346275 15.5842495 C12.74547979 15.59650963 11.19742298 15.60168991 9.64939308 15.59945107 C1.44673753 15.59051012 -5.1677555 15.65342195 -12.25366211 20.17700195 C-13.24366211 20.50700195 -14.23366211 20.83700195 -15.25366211 21.17700195 C-16.33797305 22.92567678 -16.33797305 22.92567678 -17.25366211 25.17700195 C-17.74866211 26.02262695 -18.24366211 26.86825195 -18.75366211 27.73950195 C-20.48830639 31.71472844 -21.06048118 35.40960805 -21.62866211 39.6887207 C-22.32727684 42.47008059 -22.94635037 43.50788282 -25.25366211 45.17700195 C-29.10767227 45.66751234 -31.29536637 45.90810815 -34.44506836 43.50512695 C-37.75954606 39.23854226 -36.89049389 34.32364247 -36.25366211 29.17700195 C-35.32833393 25.89156707 -33.96975087 23.1188684 -32.25366211 20.17700195 C-31.60010742 19.0168457 -31.60010742 19.0168457 -30.93334961 17.83325195 C-24.21930277 6.82661778 -12.86410067 0.04987171 0 0 Z " fill="#FA8175" transform="translate(124.253662109375,322.822998046875)"/>
<path d="M0 0 C3.7232067 1.2410689 5.24140025 3.24140025 8 6 C9.63377642 7.05287814 11.29181597 8.0727001 13 9 C11.35262707 13.18227908 8.29222814 16.03123142 5.1796875 19.15625 C4.31345261 20.03247009 4.31345261 20.03247009 3.42971802 20.9263916 C2.206769 22.1594507 0.98110498 23.38982217 -0.24707031 24.61767578 C-2.10816535 26.48312595 -3.952692 28.36394227 -5.796875 30.24609375 C-6.99120245 31.44629353 -8.18648556 32.64554324 -9.3828125 33.84375 C-9.92584015 34.40114868 -10.4688678 34.95854736 -11.02835083 35.53283691 C-18.51324088 42.93139818 -24.76528907 44.51285291 -35.27404785 44.45318604 C-36.73478804 44.43276658 -38.19552207 44.41190271 -39.65625 44.390625 C-41.16938526 44.38315322 -42.68253027 44.37746472 -44.19567871 44.37347412 C-48.15457453 44.35829123 -52.11287185 44.3190746 -56.0715332 44.2746582 C-60.12052314 44.23354551 -64.16961095 44.21542916 -68.21875 44.1953125 C-76.14610624 44.15257165 -84.07297841 44.08441147 -92 44 C-92.02685095 41.52076199 -92.04676547 39.0418116 -92.0625 36.5625 C-92.07506836 35.50192383 -92.07506836 35.50192383 -92.08789062 34.41992188 C-92.09653588 32.61306441 -92.05220011 30.80612397 -92 29 C-91 28 -91 28 -88.54185486 27.8888855 C-87.44901688 27.89445465 -86.35617889 27.9000238 -85.23022461 27.90576172 C-83.37710915 27.90973465 -83.37710915 27.90973465 -81.48655701 27.91378784 C-80.82157133 27.91683804 -80.15658566 27.91988823 -79.4714489 27.92303085 C-75.95031237 27.93435892 -72.42930601 27.91386496 -68.90820312 27.8984375 C-64.42692619 27.88018594 -59.94633391 27.87132666 -55.46508789 27.90039062 C-51.84537432 27.92303041 -48.22715326 27.91136608 -44.60754585 27.87738419 C-43.23257436 27.87064438 -41.85748152 27.87621418 -40.48261833 27.89474106 C-31.24404829 28.08382508 -31.24404829 28.08382508 -23.41430664 23.76196289 C-22.24819767 22.53397612 -21.10701348 21.28151582 -20 20 C-18.64165039 18.69784546 -18.64165039 18.69784546 -17.25585938 17.36938477 C-16.45986328 16.56815186 -15.66386719 15.76691895 -14.84375 14.94140625 C-13.9671875 14.06162109 -13.090625 13.18183594 -12.1875 12.27539062 C-10.8571875 10.93250977 -10.8571875 10.93250977 -9.5 9.5625 C-8.12328125 8.17901367 -8.12328125 8.17901367 -6.71875 6.76757812 C-4.47684945 4.51400101 -2.237334 2.25810925 0 0 Z " fill="#004777" transform="translate(391,97)"/>
<path d="M0 0 C9.06003144 5.46926668 15.5251027 13.44152215 19.25 23.3125 C21.21417693 32.96970323 20.25328362 43.03144349 15.48828125 51.7734375 C8.52863369 62.18944936 0.25723127 67.84909004 -12.04296875 70.70703125 C-16.77863204 71.39085847 -19.08770659 71.5903075 -23.1875 68.9375 C-25.30033716 65.51324667 -25.75537053 63.94471279 -25 60 C-23.32640582 57.26139133 -21.90754105 56.22448012 -18.7890625 55.453125 C-17.05952602 55.14446926 -15.32900332 54.84130101 -13.59765625 54.54296875 C-7.94395487 53.36121764 -3.61160552 51.2384141 -0.125 46.5625 C3.4914069 40.80303717 5.05445652 35.82168807 4 29 C1.29781951 21.38476408 -2.08480779 16.99453188 -9.3125 13.3125 C-12.2670201 12.26089115 -14.16917437 11.80935191 -17.1875 11.5625 C-21 11 -21 11 -23.5 9.375 C-25.58825548 6.06859549 -25.48801343 3.83439125 -25 0 C-19.77579977 -7.46314319 -6.84554206 -3.18138212 0 0 Z " fill="#FA8075" transform="translate(177,360)"/>
<path d="M0 0 C0.70304222 1.72290605 1.38683491 3.45367466 2.0625 5.1875 C2.44535156 6.15042969 2.82820313 7.11335937 3.22265625 8.10546875 C4.11080707 11.41260321 4.36530058 12.84969533 3 16 C0.70209869 17.79088051 -1.45746566 19.26341571 -3.9375 20.75 C-21.36417318 31.81114265 -32.88776321 46.64828039 -38.31640625 66.80859375 C-40.52933997 78.10442233 -39.64735333 90.66942344 -38 102 C-40.64147956 98.81944298 -42.09361818 95.66658802 -43.5625 91.8125 C-43.97628906 90.74644531 -44.39007813 89.68039062 -44.81640625 88.58203125 C-50.75456856 70.61076116 -49.49621564 51.75114664 -41.25 34.8125 C-38.10986677 28.66115185 -34.64643018 23.14426198 -30 18 C-29.443125 17.34 -28.88625 16.68 -28.3125 16 C-21.79703595 8.81052243 -9.95042555 -0.2618533 0 0 Z " fill="#D8484E" transform="translate(68,190)"/>
<path d="M0 0 C9.07665842 2.54783394 15.69106114 8.49436618 20.51171875 16.453125 C24.84985237 24.39411535 24.80254701 33.29718991 22.4140625 41.9375 C19.11151758 51.58278306 12.46136989 57.8139534 3.6640625 62.5625 C-1.63733198 65.03648409 -6.56643657 65.26371627 -12.3359375 64.5625 C-15.0234375 63 -15.0234375 63 -16.3359375 60.5625 C-16.8984375 57.0625 -16.8984375 57.0625 -16.3359375 53.5625 C-13.47576059 50.03494847 -10.76255859 49.36290697 -6.4609375 48.6875 C-1.0857958 47.77292365 2.20108598 45.77259098 5.6640625 41.5625 C8.04176808 36.91046735 8.4556066 31.70753662 7.6640625 26.5625 C5.7994319 23.1792447 5.7994319 23.1792447 3.6640625 20.5625 C3.6640625 19.9025 3.6640625 19.2425 3.6640625 18.5625 C-0.71424766 16.70310875 -5.09014185 15.60383437 -9.71484375 14.5390625 C-12.78515265 13.39513221 -14.28240793 12.09502839 -16.3359375 9.5625 C-16.92484375 6.02906253 -16.75801831 4.29154866 -14.9609375 1.1875 C-10.26657837 -1.71853184 -5.2756037 -0.98807293 0 0 Z " fill="#FA8175" transform="translate(245.3359375,180.4375)"/>
<path d="M0 0 C1.83984375 0.59375 1.83984375 0.59375 3.83984375 2.09375 C7.23801893 10.58918796 3.67593139 20.35852657 0.83984375 28.59375 C-5.39826034 42.158858 -16.23278568 52.05908628 -30.03515625 57.46875 C-35.83532808 59.57917397 -40.52716963 60.75916998 -46.72265625 60.84375 C-48.42615234 60.88242188 -48.42615234 60.88242188 -50.1640625 60.921875 C-53.16015625 60.59375 -53.16015625 60.59375 -55.03125 59.32421875 C-56.61684229 56.89370876 -56.62241312 54.47244508 -56.75390625 51.62890625 C-55.81292179 48.40355821 -53.9431083 47.35361405 -51.16015625 45.59375 C-48.25 44.9765625 -48.25 44.9765625 -45.09765625 44.71875 C-35.40404661 43.48641824 -26.01721744 39.15937071 -19.5 31.69140625 C-14.41571665 24.31282234 -11.41210074 15.98774442 -10.66015625 7.03125 C-10.16015625 3.59375 -10.16015625 3.59375 -8.59765625 1.03125 C-5.45511686 -0.82204246 -3.52271276 -0.6822386 0 0 Z " fill="#FA8175" transform="translate(201.16015625,177.40625)"/>
<path d="M0 0 C2.3125 1.4375 2.3125 1.4375 4 4 C4.2890625 5.91796875 4.2890625 5.91796875 4.4375 8.125 C4.92678525 14.58143795 7.26422824 20.31949636 11.93359375 24.89453125 C17.60731059 29.30265529 22.40426469 31.23132678 29.65625 31.30859375 C30.92597656 31.33373047 32.19570312 31.35886719 33.50390625 31.38476562 C36.16792007 31.41992123 38.8319883 31.45117143 41.49609375 31.47851562 C43.40068359 31.5181543 43.40068359 31.5181543 45.34375 31.55859375 C46.50068359 31.57204834 47.65761719 31.58550293 48.84960938 31.59936523 C52.31321127 32.03983104 54.21601073 32.92815721 57 35 C58.42041821 37.84083641 58.31452272 39.85477278 58 43 C55.81637463 45.93300589 54.62563184 46.89598111 50.98242188 47.50170898 C49.82291016 47.49985596 48.66339844 47.49800293 47.46875 47.49609375 C45.53902344 47.49706055 45.53902344 47.49706055 43.5703125 47.49804688 C42.90032227 47.48765381 42.23033203 47.47726074 41.54003906 47.46655273 C39.53470697 47.43799427 37.52894367 47.44814913 35.5234375 47.45898438 C21.14727629 47.36609665 10.73830103 44.91908531 0 35.1875 C-7.23970027 27.69815489 -10.78805714 17.90785425 -11.26171875 7.58203125 C-11 5 -11 5 -8.9375 1.75 C-5.51368799 -0.2897178 -3.91010972 -0.74874441 0 0 Z " fill="#FA8175" transform="translate(69,235)"/>
<path d="M0 0 C1.07461739 0.00539291 1.07461739 0.00539291 2.17094421 0.01089478 C2.92211517 0.01074875 3.67328613 0.01060272 4.44721985 0.01045227 C6.94166404 0.01115153 9.43603448 0.01894452 11.9304657 0.02676392 C13.65539509 0.02862805 15.38032501 0.03005197 17.10525513 0.03105164 C21.65418448 0.03487719 26.20308211 0.04470779 30.7519989 0.05575562 C35.39025951 0.06596893 40.02852522 0.07054908 44.66679382 0.07559204 C53.77423191 0.08633003 62.88163808 0.10392713 71.98905945 0.12442017 C71.98905945 5.40442017 71.98905945 10.68442017 71.98905945 16.12442017 C46.24905945 16.12442017 20.50905945 16.12442017 -6.01094055 16.12442017 C-6.01094055 0.01272675 -6.01094055 0.01272675 0 0 Z " fill="#014676" transform="translate(305.0109405517578,298.8755798339844)"/>
<path d="M0 0 C6.26216061 -0.09927816 12.52385759 -0.17166238 18.78662109 -0.21972656 C20.91463202 -0.23977468 23.04258832 -0.26702054 25.17041016 -0.30175781 C28.23874433 -0.35057548 31.30634673 -0.37303726 34.375 -0.390625 C35.78954468 -0.42159271 35.78954468 -0.42159271 37.23266602 -0.45318604 C44.82554042 -0.45573398 49.81100981 1.35698935 55.65234375 6.19824219 C56.40644531 6.97329102 57.16054688 7.74833984 57.9375 8.546875 C58.76894531 9.39121094 59.60039062 10.23554688 60.45703125 11.10546875 C61.29621094 11.97816406 62.13539063 12.85085938 63 13.75 C63.87011719 14.63816406 64.74023438 15.52632813 65.63671875 16.44140625 C67.76723987 18.61875201 69.88780404 20.8048978 72 23 C70.89938244 26.30185267 70.45420674 26.6305502 67.6875 28.4375 C64.77407998 30.35239429 62.41826226 32.48564785 60 35 C59.67467285 34.45996338 59.3493457 33.91992676 59.01416016 33.36352539 C54.27414749 26.08248309 48.45393743 18.52121887 39.6262207 16.44049072 C26.60606609 14.48221205 13.10030554 15.28863065 0 16 C0 10.72 0 5.44 0 0 Z " fill="#014776" transform="translate(299,420)"/>
<path d="M0 0 C6.02467496 4.2762553 11.80207746 8.94278096 15.234375 15.5859375 C15.234375 16.2459375 15.234375 16.9059375 15.234375 17.5859375 C10.4809581 15.70382952 5.77921586 13.70650669 1.07421875 11.70703125 C-8.99371222 7.73248353 -21.01193027 8.47212018 -31.0078125 12.3125 C-37.38087407 15.2553018 -42.91516167 18.47090345 -47.765625 23.5859375 C-53.24495289 22.04048604 -57.87991681 19.43050538 -62.765625 16.5859375 C-59.84678883 7.93584489 -52.05476355 2.10569116 -44.2890625 -2.1953125 C-30.19216761 -9.00371994 -13.46568792 -8.10889966 0 0 Z " fill="#D8484E" transform="translate(262.765625,21.4140625)"/>
<path d="M0 0 C21.45 0 42.9 0 65 0 C65 5.28 65 10.56 65 16 C56.67270649 16.02255403 48.34543656 16.04091682 40.01812077 16.05181217 C36.15179882 16.05704026 32.28549879 16.06413654 28.41918945 16.07543945 C24.69096599 16.086271 20.96276366 16.0922774 17.23452568 16.09487724 C15.80910344 16.09673101 14.38368241 16.10035071 12.95826912 16.10573006 C10.96836592 16.11294393 8.97844166 16.11340808 6.98852539 16.11352539 C5.85379288 16.115746 4.71906036 16.11796661 3.54994202 16.12025452 C1 16 1 16 0 15 C0 10.05 0 5.1 0 0 Z " fill="#014777" transform="translate(299,365)"/>
<path d="M0 0 C1.55074219 -0.03867187 1.55074219 -0.03867187 3.1328125 -0.078125 C5.875 0.25 5.875 0.25 7.7109375 1.51953125 C9.37709757 3.9964068 9.4132125 6.38797696 9.2734375 9.3125 C8.875 11.25 8.875 11.25 7 13.6875 C3.91594323 15.22952839 2.35164181 15.4831316 -1 15.6875 C-6.23660573 16.03088398 -9.46784159 17.46991189 -13.125 21.25 C-15.70760857 25.3083849 -16.96827579 29.70146525 -18.28125 34.296875 C-19.125 36.25 -19.125 36.25 -22.125 38.25 C-25.7483318 38.12059529 -28.19485031 38.00012072 -31.0625 35.6875 C-33.39756721 30.3305811 -32.45733371 25.55880133 -30.5625 20.25 C-26.58083024 11.2045342 -20.04136896 5.39281452 -11.125 1.25 C-7.41392706 0.26237575 -3.83264384 0.05763374 0 0 Z " fill="#FA8075" transform="translate(182.125,63.75)"/>
<path d="M0 0 C1.20916077 -0.00218285 1.20916077 -0.00218285 2.44274902 -0.00440979 C4.14399842 -0.00275268 5.8452631 0.00878776 7.54638672 0.02954102 C10.14745896 0.05849589 12.74649215 0.05014718 15.34765625 0.03710938 C17.00261405 0.04334721 18.65756543 0.0517385 20.3125 0.0625 C21.08863647 0.05956436 21.86477295 0.05662872 22.66442871 0.05360413 C25.93676987 0.11065404 28.26848028 0.27717739 31.14672852 1.90209961 C32.65625 3.49609375 32.65625 3.49609375 33.15234375 5.43359375 C32.9942901 10.99708217 32.9942901 10.99708217 31.34375 13.43359375 C27.51782767 15.84250781 23.67494475 15.67242336 19.3203125 15.69921875 C18.24576309 15.70776886 18.24576309 15.70776886 17.14950562 15.7164917 C15.63484163 15.72592911 14.12015723 15.73247068 12.60546875 15.73632812 C10.29650797 15.74602964 7.98843931 15.7770615 5.6796875 15.80859375 C4.20573443 15.8151248 2.73177502 15.82037487 1.2578125 15.82421875 C0.57119537 15.83656555 -0.11542175 15.84891235 -0.82284546 15.8616333 C-5.56898468 15.83974104 -8.93416015 14.9056836 -12.34375 11.49609375 C-12.92378581 5.34771413 -12.92378581 5.34771413 -10.84570312 2.29663086 C-7.34854804 -0.22010594 -4.1489244 -0.06005249 0 0 Z " fill="#FA8075" transform="translate(225.34375,322.50390625)"/>
<path d="M0 0 C6.93 0 13.86 0 21 0 C21 5.28 21 10.56 21 16 C14.07 16 7.14 16 0 16 C0 10.72 0 5.44 0 0 Z " fill="#044876" transform="translate(299,230)"/>
<path d="M0 0 C5.94 0 11.88 0 18 0 C18 5.28 18 10.56 18 16 C12.06 16 6.12 16 0 16 C0 10.72 0 5.44 0 0 Z " fill="#074975" transform="translate(299,61)"/>
</svg>
