<?xml version="1.0" encoding="UTF-8"?>
<svg version="1.1" xmlns="http://www.w3.org/2000/svg" width="512" height="512">
<path d="M0 0 C1.23878906 -0.020625 2.47757813 -0.04125 3.75390625 -0.0625 C28.40396437 -0.16531568 51.04031207 9.45574939 69 26.25 C70.02316562 27.62894264 71.02652072 29.02304293 72 30.4375 C73.22772958 32.09446867 73.22772958 32.09446867 75 33.25 C77.32541665 33.16006663 77.32541665 33.16006663 79.8671875 32.44921875 C103.98665901 27.346718 129.62682032 31.80467596 150.3125 45.125 C163.55169753 54.35339506 163.55169753 54.35339506 166 59.25 C166.04254356 61.24954746 166.04080783 63.25041636 166 65.25 C166 70.86286749 170.23612394 75.33705955 174 79.25 C176.46064106 80.28647582 178.36678058 80.6630446 181.01953125 80.80859375 C183 81.25 183 81.25 184.60546875 82.89453125 C191.69576886 94.87058437 194.89506625 111.45934968 194 125.25 C195.19625 125.270625 196.3925 125.29125 197.625 125.3125 C209.59982028 126.7057967 220.15438428 134.53830981 228 143.25 C235.42402396 152.94555368 240 163.17930651 240 175.375 C240.2715069 182.44011871 242.41329063 185.83271344 247.45703125 190.66796875 C264.08831536 207.55472573 271.43216844 232.89031554 271.3125 256 C271.30404053 257.71678955 271.30404053 257.71678955 271.29541016 259.46826172 C270.9396854 284.32320814 261.60503841 306.81583515 245 325.25 C244.30261719 326.02988281 243.60523438 326.80976563 242.88671875 327.61328125 C226.27955723 345.1919769 201.15740092 356.8028607 176.984375 357.55078125 C174.90633421 357.5698927 172.8280999 357.57343483 170.75 357.5625 C169.65534424 357.55831055 168.56068848 357.55412109 167.43286133 357.54980469 C158.94653838 357.43191296 151.197289 356.56923298 143 354.25 C141.98421875 353.9715625 140.9684375 353.693125 139.921875 353.40625 C131.80969513 350.94286554 124.48727661 347.16731225 117 343.25 C115.6684005 342.57987688 114.33594254 341.91142253 113 341.25 C112.89558594 342.40371094 112.79117187 343.55742187 112.68359375 344.74609375 C112.1130331 349.24630438 110.80950022 353.14254185 109.0625 357.3125 C108.75602539 358.0449292 108.44955078 358.7773584 108.13378906 359.53198242 C101.08001516 375.68150378 89.72745857 389.70441499 75.3125 399.82421875 C69.16300334 406.27495764 69.58227527 415.25792395 69.62890625 423.66015625 C69.61153165 426.05534003 69.59394719 428.45052229 69.57617188 430.84570312 C69.56609143 434.58702319 69.56250716 438.32824697 69.56420898 442.06958008 C69.56063228 445.70422571 69.53327496 449.33814106 69.50390625 452.97265625 C69.51208878 454.08431656 69.5202713 455.19597687 69.52870178 456.34132385 C69.45609049 463.94911478 68.36697919 469.34822098 63.25390625 475.2734375 C62.69574219 475.71945312 62.13757813 476.16546875 61.5625 476.625 C61.00691406 477.08648437 60.45132812 477.54796875 59.87890625 478.0234375 C58 479.25 58 479.25 55.54321289 479.93823242 C51.96563971 481.78351424 51.66356245 483.68899485 50.4296875 487.46484375 C49.79740234 489.32979492 49.79740234 489.32979492 49.15234375 491.23242188 C48.72529836 492.55037231 48.29952992 493.86873715 47.875 495.1875 C47.02964382 497.76320454 46.16955434 500.33302397 45.3046875 502.90234375 C44.7475708 504.61925415 44.7475708 504.61925415 44.17919922 506.37084961 C43.01521216 509.21285777 42.37637279 510.40256917 40 512.25 C37.76795959 512.63768005 37.76795959 512.63768005 35.13305664 512.65405273 C34.1451564 512.66673691 33.15725616 512.67942108 32.13941956 512.69248962 C31.07376266 512.68955399 30.00810577 512.68661835 28.91015625 512.68359375 C27.81408554 512.6888356 26.71801483 512.69407745 25.58872986 512.69947815 C23.2695297 512.70590481 20.95029697 512.70455307 18.63110352 512.69604492 C15.07965083 512.68754107 11.52980906 512.71627953 7.97851562 512.74804688 C5.72656298 512.74965907 3.47460749 512.74908101 1.22265625 512.74609375 C0.15902359 512.75732773 -0.90460907 512.76856171 -2.00047302 512.78013611 C-9.2795209 512.71123522 -9.2795209 512.71123522 -12.5715332 510.60375977 C-14.26721485 507.80969606 -15.19213309 505.24290392 -16.078125 502.09375 C-16.43519531 500.90652344 -16.79226562 499.71929687 -17.16015625 498.49609375 C-17.88551157 496.00284732 -18.59652051 493.5053814 -19.29296875 491.00390625 C-21.00528213 484.63895277 -21.00528213 484.63895277 -24.96362305 479.62988281 C-26.94967875 478.67664905 -28.91632033 477.9551596 -31 477.25 C-32.98828125 475.609375 -32.98828125 475.609375 -34.3125 474 C-34.76238281 473.47921875 -35.21226562 472.9584375 -35.67578125 472.421875 C-40.21512789 464.9768109 -40.42875967 458.16391963 -40.40625 449.6484375 C-40.41708618 448.45320465 -40.42792236 447.2579718 -40.43908691 446.02651978 C-40.48478869 440.93829123 -40.49643862 435.85011578 -40.51123047 430.76171875 C-40.52692757 427.0362742 -40.5599215 423.31125438 -40.59375 419.5859375 C-40.59072876 418.43894379 -40.58770752 417.29195007 -40.58459473 416.11019897 C-40.63791033 410.44244265 -40.69057048 406.09168435 -44 401.25 C-46.13634215 399.17474067 -46.13634215 399.17474067 -48.625 397.4375 C-69.23804957 381.57441403 -81.42557418 359.28800735 -85.6953125 333.70703125 C-86.09204645 330.507728 -86.14304065 327.46841454 -86 324.25 C-86.85335937 324.14429688 -87.70671875 324.03859375 -88.5859375 323.9296875 C-102.35845544 321.18779034 -113.80617344 311.27285433 -121.9375 300.25 C-126.25646762 293.61843113 -130.35038194 286.26195604 -131 278.25 C-131.66 278.58 -132.32 278.91 -133 279.25 C-147.82872448 281.36838921 -162.37642857 280.21426598 -176.6875 275.8125 C-177.6942981 275.50469604 -177.6942981 275.50469604 -178.72143555 275.19067383 C-182.26878551 274.03445027 -185.3701896 272.95088636 -188 270.25 C-188.609375 267.98828125 -188.609375 267.98828125 -188.75 265.5625 C-188.80671875 264.75425781 -188.8634375 263.94601562 -188.921875 263.11328125 C-188.94765625 262.49839844 -188.9734375 261.88351562 -189 261.25 C-190.0209375 260.9096875 -190.0209375 260.9096875 -191.0625 260.5625 C-193.67764367 259.39403155 -195.10750287 258.36039969 -197.25 256.5625 C-199.44448288 254.90945067 -200.49843663 254.24913821 -203.2734375 254.25390625 C-204.82988293 254.49952472 -206.38467386 254.75588975 -207.9375 255.0234375 C-210 255.25 -210 255.25 -212.625 254.25 C-228.37034337 240.99076348 -238.4656147 221.69244746 -241 201.25 C-242.43755721 171.55739676 -236.60047176 144.93636874 -216.62988281 122.16113281 C-203.25238408 107.44671978 -184.31964551 95.49405993 -164 94.25 C-163.93683594 93.54617187 -163.87367188 92.84234375 -163.80859375 92.1171875 C-162.07427309 78.13308616 -155.52766551 66.57029688 -145 57.25 C-132.60832482 47.9129436 -118.32555493 43.14976952 -102.76171875 44.5390625 C-97.0800617 45.37397599 -92.13533215 46.68233392 -87 49.25 C-86.74089844 48.53070313 -86.48179687 47.81140625 -86.21484375 47.0703125 C-77.91856355 27.81013789 -57.82292935 14.30923995 -39.0078125 6.71875 C-26.19303581 1.85126752 -13.65963623 0.0554706 0 0 Z " fill="#DE7E83" transform="translate(241,-0.25)"/>
<path d="M0 0 C3.1875 -0.3125 3.1875 -0.3125 7 0 C16.58529112 7.91259237 18.44407243 23.19470828 20 35 C20.18643464 38.35582348 20.21765442 41.64650971 20 45 C21.19625 45.020625 22.3925 45.04125 23.625 45.0625 C35.59982028 46.4557967 46.15438428 54.28830981 54 63 C61.42402396 72.69555368 66 82.92930651 66 95.125 C66.2715069 102.19011871 68.41329063 105.58271344 73.45703125 110.41796875 C90.08831536 127.30472573 97.43216844 152.64031554 97.3125 175.75 C97.30686035 176.89452637 97.3012207 178.03905273 97.29541016 179.21826172 C96.9396854 204.07320814 87.60503841 226.56583515 71 245 C70.30261719 245.77988281 69.60523438 246.55976563 68.88671875 247.36328125 C52.27955723 264.9419769 27.15740092 276.5528607 2.984375 277.30078125 C0.90633421 277.3198927 -1.1719001 277.32343483 -3.25 277.3125 C-4.34465576 277.30831055 -5.43931152 277.30412109 -6.56713867 277.29980469 C-15.05346162 277.18191296 -22.802711 276.31923298 -31 274 C-32.01578125 273.7215625 -33.0315625 273.443125 -34.078125 273.15625 C-42.19030487 270.69286554 -49.51272339 266.91731225 -57 263 C-58.3315995 262.32987688 -59.66405746 261.66142253 -61 261 C-61.10441406 262.15371094 -61.20882813 263.30742187 -61.31640625 264.49609375 C-61.8869669 268.99630438 -63.19049978 272.89254185 -64.9375 277.0625 C-65.24397461 277.7949292 -65.55044922 278.5273584 -65.86621094 279.28198242 C-72.91998484 295.43150378 -84.27254143 309.45441499 -98.6875 319.57421875 C-104.83699666 326.02495764 -104.41772473 335.00792395 -104.37109375 343.41015625 C-104.38846835 345.80534003 -104.40605281 348.20052229 -104.42382812 350.59570312 C-104.43390857 354.33702319 -104.43749284 358.07824697 -104.43579102 361.81958008 C-104.43936772 365.45422571 -104.46672504 369.08814106 -104.49609375 372.72265625 C-104.48791122 373.83431656 -104.4797287 374.94597687 -104.47129822 376.09132385 C-104.54390951 383.69911478 -105.63302081 389.09822098 -110.74609375 395.0234375 C-111.30425781 395.46945312 -111.86242187 395.91546875 -112.4375 396.375 C-112.99308594 396.83648437 -113.54867187 397.29796875 -114.12109375 397.7734375 C-116 399 -116 399 -118.45678711 399.68823242 C-122.03436029 401.53351424 -122.33643755 403.43899485 -123.5703125 407.21484375 C-123.99183594 408.45814453 -124.41335938 409.70144531 -124.84765625 410.98242188 C-125.27470164 412.30037231 -125.70047008 413.61873715 -126.125 414.9375 C-126.97035618 417.51320454 -127.83044566 420.08302397 -128.6953125 422.65234375 C-129.06672363 423.79695068 -129.43813477 424.94155762 -129.82080078 426.12084961 C-130.98478784 428.96285777 -131.62362721 430.15256917 -134 432 C-136.23204041 432.38768005 -136.23204041 432.38768005 -138.86694336 432.40405273 C-140.34879372 432.42307899 -140.34879372 432.42307899 -141.86058044 432.44248962 C-142.92623734 432.43955399 -143.99189423 432.43661835 -145.08984375 432.43359375 C-146.18591446 432.4388356 -147.28198517 432.44407745 -148.41127014 432.44947815 C-150.7304703 432.45590481 -153.04970303 432.45455307 -155.36889648 432.44604492 C-158.92034917 432.43754107 -162.47019094 432.46627953 -166.02148438 432.49804688 C-168.27343702 432.49965907 -170.52539251 432.49908101 -172.77734375 432.49609375 C-173.84097641 432.50732773 -174.90460907 432.51856171 -176.00047302 432.53013611 C-183.2795209 432.46123522 -183.2795209 432.46123522 -186.5715332 430.35375977 C-188.26721485 427.55969606 -189.19213309 424.99290392 -190.078125 421.84375 C-190.43519531 420.65652344 -190.79226562 419.46929687 -191.16015625 418.24609375 C-191.88551157 415.75284732 -192.59652051 413.2553814 -193.29296875 410.75390625 C-195.00528213 404.38895277 -195.00528213 404.38895277 -198.96362305 399.37988281 C-200.94967875 398.42664905 -202.91632033 397.7051596 -205 397 C-206.98828125 395.359375 -206.98828125 395.359375 -208.3125 393.75 C-208.76238281 393.22921875 -209.21226562 392.7084375 -209.67578125 392.171875 C-214.21512789 384.7268109 -214.42875967 377.91391963 -214.40625 369.3984375 C-214.41708618 368.20320465 -214.42792236 367.0079718 -214.43908691 365.77651978 C-214.48478869 360.68829123 -214.49643862 355.60011578 -214.51123047 350.51171875 C-214.52692757 346.7862742 -214.5599215 343.06125438 -214.59375 339.3359375 C-214.59072876 338.18894379 -214.58770752 337.04195007 -214.58459473 335.86019897 C-214.63791033 330.19244265 -214.69057048 325.84168435 -218 321 C-220.13634215 318.92474067 -220.13634215 318.92474067 -222.625 317.1875 C-243.23804957 301.32441403 -255.42557418 279.03800735 -259.6953125 253.45703125 C-260.09204645 250.257728 -260.14304065 247.21841454 -260 244 C-260.85335937 243.89429688 -261.70671875 243.78859375 -262.5859375 243.6796875 C-276.35845544 240.93779034 -287.80617344 231.02285433 -295.9375 220 C-300.25646762 213.36843113 -304.35038194 206.01195604 -305 198 C-305.66 198.33 -306.32 198.66 -307 199 C-321.82872448 201.11838921 -336.37642857 199.96426598 -350.6875 195.5625 C-351.6942981 195.25469604 -351.6942981 195.25469604 -352.72143555 194.94067383 C-356.27738387 193.78164772 -359.31591982 192.65142713 -362 190 C-363.04706811 187.34415538 -363.2227335 184.8384243 -363 182 C-361.5625 179.5 -361.5625 179.5 -359 178 C-352.69200065 177.09885724 -347.74934556 178.86360759 -341.83203125 181.02734375 C-335.79014837 183.10241801 -330.14781651 183.18303537 -323.8125 183.1875 C-322.91724609 183.19974609 -322.02199219 183.21199219 -321.09960938 183.22460938 C-315.5997267 183.23652248 -310.54463221 182.69393786 -305.1796875 181.47363281 C-301.95747141 180.77346489 -299.27277112 180.55079612 -296 181 C-291.38757044 184.66054728 -290.06033282 188.15036398 -289 193.75 C-286.40322501 205.43945401 -281.08626519 215.19788628 -270.921875 222.0859375 C-267.02525078 224.39191077 -263.30304866 226.56565045 -259 228 C-259.04125 227.01902344 -259.0825 226.03804687 -259.125 225.02734375 C-259.11623917 220.66335743 -258.17853741 216.74564521 -257 212.5625 C-256.77997314 211.78116699 -256.55994629 210.99983398 -256.33325195 210.19482422 C-252.76568115 198.2158191 -245.67123217 180.11415478 -235 173 C-231.63812807 173.18010028 -229.00081858 173.41887954 -226.0625 175.125 C-224.21295902 178.38889584 -224.40949528 180.27982028 -225 184 C-226.51779363 186.50726972 -228.23776557 188.79701527 -229.9921875 191.14453125 C-238.37582777 203.06756829 -243.47459537 217.4200214 -244 232 C-244.07734375 233.56621094 -244.07734375 233.56621094 -244.15625 235.1640625 C-244.77242312 257.9111202 -236.84039456 279.4641308 -221.78125 296.51171875 C-218.02343776 300.40846419 -214.04755174 303.77726045 -209.75 307.0625 C-203.57262309 311.88527327 -200.53747961 316.31260195 -199 324 C-193.39 324 -187.78 324 -182 324 C-182 302.88 -182 281.76 -182 260 C-182.66 260.33 -183.32 260.66 -184 261 C-191.39747595 261.69422467 -197.95558582 261.66654772 -204 257 C-208.86703923 252.38354101 -212.52443146 248.00915341 -213.3359375 241.16796875 C-213.43630733 233.50975035 -212.71094942 228.03244256 -207.421875 222.28515625 C-201.54453216 216.87111746 -195.50377135 214.38057299 -187.4921875 214.6484375 C-180.95710961 215.57031369 -176.2367438 219.05713223 -172 224 C-167.60177227 230.10864962 -166.85486274 234.30714102 -166.88647461 241.6940918 C-166.88632858 242.5821048 -166.88618256 243.4701178 -166.8860321 244.38504028 C-166.88672932 247.32312454 -166.89451282 250.26114556 -166.90234375 253.19921875 C-166.90420861 255.23517319 -166.90563219 257.27112808 -166.90663147 259.30708313 C-166.91045131 264.66811357 -166.92027708 270.02911697 -166.93133545 275.39013672 C-166.94156101 280.8596968 -166.94613155 286.32926124 -166.95117188 291.79882812 C-166.96189979 302.53256397 -166.97896985 313.26627974 -167 324 C-161.72 324 -156.44 324 -151 324 C-151.01110306 322.8674025 -151.02220612 321.73480499 -151.03364563 320.56788635 C-151.13519042 309.87214198 -151.21004641 299.17649595 -151.25906086 288.48037815 C-151.28510732 282.98191228 -151.32041522 277.48383688 -151.37719727 271.9855957 C-151.43169313 266.67523826 -151.46145776 261.3652554 -151.47438622 256.05463982 C-151.48359455 254.0328984 -151.50157634 252.01117651 -151.52865028 249.98959541 C-151.56517424 247.14830023 -151.56993562 244.30853477 -151.56762695 241.46704102 C-151.59459152 240.22517532 -151.59459152 240.22517532 -151.62210083 238.95822144 C-151.55938052 231.78150212 -148.95258516 226.03646542 -143.9375 220.87890625 C-136.96057929 216.13853875 -131.59561002 213.81482881 -123 215 C-115.62315627 217.32895947 -110.77349597 221.26889908 -107 228 C-104.26422265 233.83946959 -103.90284995 240.00720709 -105.6171875 246.24609375 C-108.33811991 252.42236954 -113.36294916 257.18147458 -119.3671875 260.18359375 C-122.42770336 261.13262612 -124.98799692 261.23121992 -128.1875 261.1875 C-129.23292969 261.18105469 -130.27835938 261.17460937 -131.35546875 261.16796875 C-134 261 -134 261 -136 260 C-136 281.12 -136 302.24 -136 324 C-130.39 324 -124.78 324 -119 324 C-118.67 322.35 -118.34 320.7 -118 319 C-114.74024774 311.61507453 -108.63567099 306.92492275 -102.61303711 301.87573242 C-97.32703848 297.40206021 -92.9276746 292.73177393 -89 287 C-88.19175781 285.82050781 -88.19175781 285.82050781 -87.3671875 284.6171875 C-77.95939064 269.9145502 -74.4138009 253.45052817 -74.5 236.1875 C-74.50749268 234.21172974 -74.50749268 234.21172974 -74.51513672 232.19604492 C-74.6933615 222.24311283 -75.81185212 214.06506279 -80 205 C-80.43441406 204.030625 -80.86882812 203.06125 -81.31640625 202.0625 C-91.75443089 181.1269748 -109.86047938 166.09244613 -131.609375 158.0703125 C-132.72828125 157.71710938 -133.8471875 157.36390625 -135 157 C-135.77480713 156.74105957 -136.54961426 156.48211914 -137.34790039 156.21533203 C-144.9334424 153.87374738 -152.03465965 153.54789912 -159.9375 153.625 C-161.71543945 153.60759766 -161.71543945 153.60759766 -163.52929688 153.58984375 C-173.7028077 153.6233276 -182.94633393 155.39693331 -192.3125 159.4375 C-193.30121094 159.86289063 -194.28992188 160.28828125 -195.30859375 160.7265625 C-197.60269605 161.81201584 -199.72137634 162.97772665 -201.875 164.3125 C-205.339325 166.1832355 -207.13204507 166.68763643 -211 166 C-214.05623277 163.90889337 -214.86463014 162.70693151 -215.5625 159.0625 C-214.80154169 154.91950474 -213.16157125 153.75484391 -210 151 C-207.52157873 149.4382314 -204.95140345 148.14284608 -202.3125 146.875 C-201.25011108 146.35462158 -201.25011108 146.35462158 -200.16625977 145.82373047 C-194.9009368 143.30055075 -189.67097213 141.40095081 -184 140 C-182.93668457 139.66444092 -181.87336914 139.32888184 -180.77783203 138.9831543 C-174.69626221 137.40046839 -168.68975119 137.67210795 -162.4375 137.6875 C-161.15552734 137.67138672 -159.87355469 137.65527344 -158.55273438 137.63867188 C-130.80205695 137.62466346 -105.66677161 149.85741967 -85.8125 168.75 C-71.96262978 183.18349522 -63.12956213 200.4720706 -59 220 C-58.79632813 220.9590625 -58.59265625 221.918125 -58.3828125 222.90625 C-57.99585433 226.03350381 -58.1304966 228.9763435 -58.27099609 232.1159668 C-58.37772187 237.76427164 -58.27226095 241.60969422 -54.34765625 245.8984375 C-50.81738457 248.44718471 -46.97450351 250.25644043 -43 252 C-42.37125977 252.29438965 -41.74251953 252.5887793 -41.09472656 252.89208984 C-19.60331492 262.89632511 3.04280759 263.67033438 25.30371094 255.94848633 C47.12364304 247.93189883 63.30340079 232.75367921 73.5078125 211.921875 C83.02816295 190.14478594 83.39225347 167.51616278 75.71484375 145.27734375 C71.3597624 134.32291906 63.77049346 119.67380792 53.36328125 113.4140625 C49.79489812 109.76900337 50.38653444 106.3473324 50.4375 101.4375 C50.15305156 88.56937481 47.42431407 79.2775687 38 70 C28.63437841 62.66832654 17.43481548 59.19743866 5.609375 59.5390625 C-2.08639924 60.52185618 -9.96966301 62.9845246 -16 68 C-15.62215451 70.34264203 -15.19170981 72.5462188 -14.265625 74.73828125 C-12.06596434 80.08179654 -11.64539367 85.09828263 -11.5625 90.8125 C-11.54050537 91.5540332 -11.51851074 92.29556641 -11.49584961 93.05957031 C-11.5089929 96.56285476 -11.71881499 98.6149648 -13.80859375 101.4765625 C-17.04574995 103.72699194 -19.15857488 103.61737189 -23 103 C-26.68595646 99.37986419 -27.45038609 96.90412714 -27.5 91.8125 C-27.97762764 82.61297627 -30.57879078 75.51662782 -36.9453125 68.75390625 C-43.96890813 62.75847956 -53.4690204 59.42567631 -62.67578125 59.69140625 C-71.95567251 60.92352627 -78.14861987 67.24255597 -84.5625 73.5 C-87 75 -87 75 -90.625 75 C-94 74 -94 74 -96 72.375 C-97.45925634 68.9092662 -96.83161198 66.63201698 -96 63 C-88.60077045 52.82045389 -77.36010961 45.98290528 -65 44 C-52.02178946 42.87145995 -41.91539002 46.02577409 -31 53 C-29.18359375 54.6875 -29.18359375 54.6875 -28 56 C-25.58623143 54.80209997 -23.18732363 53.58029868 -20.79296875 52.34375 C-19.59121884 51.72902392 -18.38939404 51.11444423 -17.1875 50.5 C-16.59646484 50.19191406 -16.00542969 49.88382813 -15.39648438 49.56640625 C-8.89172271 46.26082399 -3.31188359 44.70155577 4 45 C3.24378058 34.41292809 2.21898365 24.95197247 -1.87890625 15.078125 C-3.1220304 11.66494789 -3.75524545 8.62408494 -4 5 C-3.34 4.01 -2.68 3.02 -2 2 C-1.34 2 -0.68 2 0 2 C0 1.34 0 0.68 0 0 Z " fill="#020101" transform="translate(415,80)"/>
<path d="M0 0 C0.67417969 0.28407715 1.34835937 0.5681543 2.04296875 0.86083984 C12.1038738 5.21411607 20.68281614 10.89622965 29 18 C29.66257812 18.56074219 30.32515625 19.12148438 31.0078125 19.69921875 C43.29960926 31.04769158 54.0610329 49.26707988 55.21777344 66.18505859 C55.34179822 69.95961433 55.37991348 73.72340932 55.375 77.5 C55.37478851 78.16818756 55.37457703 78.83637512 55.37435913 79.52481079 C55.32744557 94.35105235 52.99809081 106.7683157 46 120 C45.50886719 120.96292969 45.01773438 121.92585938 44.51171875 122.91796875 C38.89480849 133.28043087 31.45398495 141.45135383 22.1875 148.625 C16.20008073 153.31899965 12.4061278 158.78161659 10 166 C4.39 166 -1.22 166 -7 166 C-7 144.88 -7 123.76 -7 102 C-2.38 102 2.24 102 7 102 C13.29360348 99.81472101 17.34436458 96.59987464 21 91 C23.88107795 84.92102453 24.15913693 78.65852595 22.125 72.23828125 C19.52034773 66.50633267 16.55050912 62.96285918 11 60 C10.236875 59.566875 9.47375 59.13375 8.6875 58.6875 C1.03479719 56.72983184 -5.00114374 57.75073501 -11.87109375 61.578125 C-16.52482928 64.686308 -18.87455008 68.92900661 -21 74 C-21.43335044 77.0441153 -21.43762825 80.05521212 -21.43237305 83.12646484 C-21.4425647 84.02466949 -21.45275635 84.92287415 -21.46325684 85.84829712 C-21.49333204 88.80257449 -21.50264447 91.7565273 -21.51171875 94.7109375 C-21.52856948 96.76503574 -21.54672025 98.81912368 -21.56611633 100.87319946 C-21.61357953 106.2686644 -21.64341281 111.66408763 -21.66955566 117.05969238 C-21.69937965 122.56982663 -21.74590371 128.07981721 -21.79101562 133.58984375 C-21.87700695 144.39315396 -21.9443709 155.19649377 -22 166 C-27.28 166 -32.56 166 -38 166 C-38.00546844 164.31656494 -38.00546844 164.31656494 -38.01104736 162.59912109 C-38.04804064 152.0058165 -38.10586087 141.41280143 -38.18390274 130.81971741 C-38.22335716 125.374103 -38.25555574 119.9286498 -38.27099609 114.48291016 C-38.2861759 109.22425333 -38.32064544 103.96603977 -38.36830902 98.70758057 C-38.38310908 96.70464945 -38.39104022 94.70165505 -38.39188385 92.69866943 C-38.39425937 89.88587574 -38.42138618 87.07430124 -38.45410156 84.26171875 C-38.4490712 83.43956375 -38.44404083 82.61740875 -38.43885803 81.77033997 C-38.56506075 74.72504904 -40.80667693 69.68072819 -45.25 64.25 C-50.89596217 59.6305764 -55.99844319 57.20492575 -63.4140625 57.55859375 C-70.1612956 58.71031179 -75.38114121 61.71617789 -79.5625 67.125 C-83.64776209 73.07351194 -83.6252627 78.97026073 -83 86 C-81.29747638 92.18446831 -77.30981491 96.5337175 -72 100 C-65.73108186 102.86657824 -65.73108186 102.86657824 -53 102 C-53 123.12 -53 144.24 -53 166 C-58.61 166 -64.22 166 -70 166 C-71.171875 163.55859375 -72.34375 161.1171875 -73.515625 158.67578125 C-76.18941554 153.855922 -79.37582986 150.49598856 -83.75 147.1875 C-101.26036836 133.36892233 -112.30934198 113.9739207 -115.5703125 91.83984375 C-118.02979424 69.86102058 -112.97604254 49.42834378 -101 31 C-100.26394531 30.11699219 -99.52789062 29.23398437 -98.76953125 28.32421875 C-96.3401814 25.13335084 -96.71490908 22.9200001 -97 19 C-97 15 -97 15 -94.59375 12.421875 C-93.57240518 11.51990814 -92.54067793 10.62959019 -91.5 9.75 C-90.97535156 9.29109375 -90.45070312 8.8321875 -89.91015625 8.359375 C-88.61550456 7.22949716 -87.30886341 6.11338381 -86 5 C-85.46375 5.33 -84.9275 5.66 -84.375 6 C-80.80428113 7.50346058 -77.83562858 7.7099197 -74.16552734 6.29052734 C-72.13889629 5.31121912 -70.16345837 4.2652741 -68.1875 3.1875 C-47.63649371 -7.55261827 -21.55190556 -9.2780734 0 0 Z " fill="#F2DE65" transform="translate(286,238)"/>
<path d="M0 0 C1.23878906 -0.020625 2.47757813 -0.04125 3.75390625 -0.0625 C28.40396437 -0.16531568 51.04031207 9.45574939 69 26.25 C70.02316562 27.62894264 71.02652072 29.02304293 72 30.4375 C73.22772958 32.09446867 73.22772958 32.09446867 75 33.25 C77.32541665 33.16006663 77.32541665 33.16006663 79.8671875 32.44921875 C103.98665901 27.346718 129.62682032 31.80467596 150.3125 45.125 C163.55169753 54.35339506 163.55169753 54.35339506 166 59.25 C166.375 62.125 166.375 62.125 166 65.25 C163.49949059 68.04468699 161.92277949 69.12276439 158.1953125 69.63671875 C154.1140483 69.14277602 151.99056014 67.29396007 149 64.6875 C131.71161093 50.57565232 110.95038509 45.69795257 89 47.25 C84.90060166 47.97709677 80.98036003 49.04212345 77 50.25 C74.43241468 50.97748251 72.71994068 51.25 70 51.25 C67.47276351 49.27752274 65.70235874 47.12901261 63.7109375 44.63671875 C51.23516496 29.47760965 33.05317459 20.818766 14 17.25 C9.40731299 16.83233002 4.85960163 16.77257082 0.25 16.8125 C-0.97992676 16.82007324 -2.20985352 16.82764648 -3.47705078 16.83544922 C-12.92462337 17.00613594 -21.1011966 18.0287137 -30 21.25 C-31.18078125 21.6625 -32.3615625 22.075 -33.578125 22.5 C-49.44958375 28.6528122 -65.7444049 40.41066696 -73 56.25 C-72.89554888 60.16691696 -70.48407182 62.03382815 -67.8125 64.6875 C-62.76428821 70.13956873 -59.09288903 76.0795802 -57 83.25 C-57.27416494 86.80129275 -57.64780675 88.72171012 -59.625 91.6875 C-62 93.25 -62 93.25 -65.5625 93.1875 C-69.03059799 92.24165509 -69.84919093 91.91748387 -72 89.25 C-72.95703125 87.05078125 -72.95703125 87.05078125 -73.8125 84.5625 C-77.66276171 74.67824605 -83.49061933 69.02404457 -93 64.25 C-98.38437799 62.32746409 -103.22824466 61.89583531 -108.875 61.9375 C-110.07080688 61.94595947 -110.07080688 61.94595947 -111.29077148 61.95458984 C-121.84443996 62.17281495 -130.01299879 65.58230552 -137.7578125 72.9140625 C-139.31016308 74.62242822 -140.67071735 76.36380077 -142 78.25 C-142.39058594 78.78625 -142.78117187 79.3225 -143.18359375 79.875 C-146.44228201 85.22259099 -146.75348438 91.04850351 -147.14160156 97.17138672 C-147.53081722 102.07439195 -148.49311246 104.77632162 -152 108.25 C-154.45401413 109.47700707 -156.5916108 109.67689054 -159.3125 110.0625 C-179.27384415 113.34969033 -197.79304649 122.69149362 -210 139.25 C-222.66824246 157.91646333 -228.14233275 178.95940904 -224.37890625 201.44921875 C-221.06385545 217.79249849 -212.70702902 231.54297098 -201 243.25 C-200.53508096 251.46356978 -200.53508096 251.46356978 -203 254.25 C-206.63459915 255.27866014 -208.95373845 255.66850462 -212.5 254.25 C-228.49788943 241.45168845 -238.49344912 221.46793398 -241 201.25 C-242.43755721 171.55739676 -236.60047176 144.93636874 -216.62988281 122.16113281 C-203.25238408 107.44671978 -184.31964551 95.49405993 -164 94.25 C-163.93683594 93.54617187 -163.87367188 92.84234375 -163.80859375 92.1171875 C-162.07427309 78.13308616 -155.52766551 66.57029688 -145 57.25 C-132.60832482 47.9129436 -118.32555493 43.14976952 -102.76171875 44.5390625 C-97.0800617 45.37397599 -92.13533215 46.68233392 -87 49.25 C-86.74089844 48.53070313 -86.48179687 47.81140625 -86.21484375 47.0703125 C-77.91856355 27.81013789 -57.82292935 14.30923995 -39.0078125 6.71875 C-26.19303581 1.85126752 -13.65963623 0.0554706 0 0 Z " fill="#010101" transform="translate(241,-0.25)"/>
<path d="M0 0 C13.61083377 -0.7248373 24.95219311 1.71414483 36 10 C42.67276516 16.04719342 48.64994971 24.97182852 49.11010742 34.21069336 C49.10857666 34.99581299 49.1070459 35.78093262 49.10546875 36.58984375 C49.12029297 37.45673828 49.13511719 38.32363281 49.15039062 39.21679688 C49.17507473 41.02653187 49.18036913 42.83663796 49.16601562 44.64648438 C49.28645106 50.31827613 49.28645106 50.31827613 52.71484375 54.734375 C53.79894531 55.48203125 54.88304687 56.2296875 56 57 C71.7232627 73.10319796 80.28726666 94.89267949 80.17626953 117.26342773 C79.84105656 141.50448295 70.56259143 162.02411299 53.66015625 179.40625 C41.54594895 190.87253373 23.20243485 201.40823188 6 202.125 C5.34 202.08375 4.68 202.0425 4 202 C6.86991253 199.7730009 9.82640257 197.8713368 12.9375 196 C34.9397331 181.97724344 48.2775576 162.12981686 55 137 C59.65795682 112.84431366 55.45518289 87.45602597 42.1875 66.75 C38.83961563 61.91488237 35.10678435 57.63396006 30.98046875 53.44921875 C26.44619222 47.84174068 25.65244257 42.33950199 25.25 35.4375 C24.17533793 22.69901478 18.80240087 12.62339032 9.625 3.6875 C6.4122337 1.62215023 3.77237988 1.29587293 0 1 C0 0.67 0 0.34 0 0 Z " fill="#D8626C" transform="translate(417,139)"/>
<path d="M0 0 C18.96803733 2.30063937 35.53806764 10.77527265 50 23 C50.66515625 23.56203125 51.3303125 24.1240625 52.015625 24.703125 C64.29800317 36.06719452 75.06054447 54.25993633 76.21777344 71.18505859 C76.34179822 74.95961433 76.37991348 78.72340932 76.375 82.5 C76.37478851 83.16818756 76.37457703 83.83637512 76.37435913 84.52481079 C76.32744557 99.35105235 73.99809081 111.7683157 67 125 C66.50886719 125.96292969 66.01773438 126.92585938 65.51171875 127.91796875 C59.89480849 138.28043087 52.45398495 146.45135383 43.1875 153.625 C37.20008073 158.31899965 33.4061278 163.78161659 31 171 C25.39 171 19.78 171 14 171 C13.15761347 163.25451675 13.15761347 163.25451675 15.29345703 160.07373047 C17.13635111 158.23910281 19.04803055 156.5817337 21.0625 154.9375 C22.45253504 153.71974325 23.8405847 152.49971623 25.2265625 151.27734375 C25.88817383 150.70612793 26.54978516 150.13491211 27.23144531 149.54638672 C41.81500452 136.79483177 51.62112545 114.54961423 53.21582031 95.40966797 C54.67467602 66.11185714 46.11314426 42.32430634 27.29296875 19.97265625 C19.925579 12.04571791 9.86288299 5.33966852 0 1 C0 0.67 0 0.34 0 0 Z " fill="#ECCF32" transform="translate(265,233)"/>
<path d="M0 0 C1.83285388 3.40387149 1.85657614 5.62896701 1.3125 9.4375 C-0.0625 11.8125 -0.0625 11.8125 -2.6875 13.4375 C-5.09235401 13.80335905 -7.47948987 13.95302431 -9.90625 14.1171875 C-19.89203217 15.26723545 -28.24302564 20.21481029 -34.6953125 27.796875 C-41.91439099 37.52299749 -43.87641439 46.34570023 -42.6875 58.4375 C-40.40861417 68.95021737 -34.43570125 76.83861028 -25.875 83.1484375 C-19.49036059 86.91081429 -13.43350628 88.19856581 -6.20898438 89.25390625 C-4.35149104 89.55852815 -2.51589588 89.99023668 -0.6875 90.4375 C1.79288907 94.1580836 1.77587203 96.03546571 1.3125 100.4375 C-0.73945112 103.11458041 -1.94563317 104.28555137 -5.28125 104.96875 C-19.77524851 104.81290055 -32.89460249 99.17233801 -43.5 89.25 C-54.38389468 77.5577001 -59.62315794 62.79199201 -59.06640625 46.84375 C-57.56547249 33.35081972 -51.2377785 20.82042705 -41.33203125 11.5390625 C-31.31845783 3.58145172 -12.71515289 -7.39253075 0 0 Z " fill="#030202" transform="translate(101.6875,135.5625)"/>
<path d="M0 0 C12.41817475 10.6918814 21.05479589 23.78508006 22.78125 40.34765625 C23.13515109 48.8317176 23.13515109 48.8317176 20.30078125 53.25 C16.89711197 55.24780588 15.29576698 55.76090122 11.42578125 54.9375 C9.11328125 53.1875 9.11328125 53.1875 7.42578125 49.9375 C7.21837784 48.11010779 7.08060745 46.27430547 6.98828125 44.4375 C6.32105332 32.38291538 1.16160522 22.04221974 -7.7421875 13.97265625 C-12.36179623 10.21176997 -17.12444633 7.31951973 -22.57421875 4.9375 C-23.41984375 4.545625 -24.26546875 4.15375 -25.13671875 3.75 C-36.37265614 0.00468754 -48.9507937 0.84193462 -59.703125 5.421875 C-63.09272046 7.21121247 -65.84962837 9.40818572 -68.796875 11.83203125 C-70.57421875 12.9375 -70.57421875 12.9375 -74.38671875 13 C-79.17695848 11.40325342 -79.17695848 11.40325342 -80.57421875 8.9375 C-81.18524594 4.81306648 -81.19009776 2.77920132 -78.69921875 -0.625 C-54.98610017 -19.12123249 -23.52524934 -18.8487582 0 0 Z " fill="#030202" transform="translate(287.57421875,58.0625)"/>
<path d="M0 0 C6.1116745 -0.27623388 10.92008761 0.51143185 16.6875 2.5 C17.46988037 2.76627197 18.25226074 3.03254395 19.05834961 3.30688477 C28.41564489 6.65185224 36.2655363 11.69165776 43.9375 18 C46.71442634 20.2378161 47.69820749 20.95444641 51.3125 21.5 C53.57406672 21.0792434 55.77316603 20.56976562 58 20 C59.50894379 21.93108878 61.00711534 23.86906006 62.5 25.8125 C62.92925781 26.35970703 63.35851562 26.90691406 63.80078125 27.47070312 C67 31.66015625 67 31.66015625 67 35 C66.484375 35.4125 65.96875 35.825 65.4375 36.25 C63.63288079 38.03405583 63.63288079 38.03405583 64.25390625 41.17578125 C64.99740711 44.98670976 66.10050332 48.32077748 67.5 51.9375 C70.75691177 60.83534541 71.15601902 68.56951701 71 78 C70.03578125 78.20496094 69.0715625 78.40992187 68.078125 78.62109375 C66.81484375 78.89050781 65.5515625 79.15992187 64.25 79.4375 C62.99703125 79.70433594 61.7440625 79.97117187 60.453125 80.24609375 C57.95442915 80.7916235 55.47446899 81.35638812 53 82 C48.61954694 77.03548654 48.2755512 72.15043191 47.47265625 65.70703125 C45.18539452 47.76809419 37.61941459 33.60087106 26 20 C25.42765625 19.32582031 24.8553125 18.65164062 24.265625 17.95703125 C17.65294394 10.80420545 8.73456419 5.15055983 0 1 C0 0.67 0 0.34 0 0 Z " fill="#D9626D" transform="translate(348,47)"/>
<path d="M0 0 C25.74 0 51.48 0 78 0 C78 5.28 78 10.56 78 16 C52.26 16 26.52 16 0 16 C0 10.72 0 5.44 0 0 Z " fill="#89808C" transform="translate(217,419)"/>
<path d="M0 0 C25.74 0 51.48 0 78 0 C78 11 78 11 75.92738342 14.14805603 C72.38277503 16.39047364 70.34160378 16.62776086 66.16186523 16.63110352 C65.4945639 16.63825882 64.82726257 16.64541412 64.13973999 16.65278625 C61.94531719 16.66962483 59.75295143 16.65030534 57.55859375 16.62890625 C56.02832368 16.62973532 54.49805371 16.63219613 52.9677887 16.63621521 C49.76576835 16.63906972 46.56444886 16.62440552 43.36254883 16.59692383 C39.26094021 16.56281164 35.16058204 16.56887149 31.05891323 16.5875864 C27.90096128 16.59816011 24.74329978 16.58921593 21.58537483 16.57420158 C20.07312953 16.5690239 18.56085385 16.56949659 17.04861259 16.57574654 C14.93465918 16.58120485 12.82249018 16.56080988 10.70874023 16.53344727 C9.50692612 16.52724869 8.305112 16.52105011 7.06687927 16.5146637 C4 16 4 16 0 12 C0 8.04 0 4.08 0 0 Z " fill="#746D77" transform="translate(217,450)"/>
<path d="M0 0 C8.45097773 6.18619958 12.60419335 18.93713142 14.51953125 28.734375 C16.84064912 44.51042818 12.48400253 58.94226657 3.515625 72.03125 C2 74 2 74 0 76 C-6.96328294 76.67386609 -6.96328294 76.67386609 -10.5 74.375 C-12.5527082 71.12487868 -12.71894408 69.81040363 -12 66 C-10.65050733 63.69280286 -9.1496766 61.54685751 -7.59765625 59.37109375 C-1.68418739 50.59486979 -0.09101188 41.44696201 -1 31 C-2.43270941 24.97443357 -4.96009859 19.90300721 -8.25 14.6875 C-10.078233 11.7595431 -10.98782257 10.06575814 -11.625 6.625 C-10.12068247 0.30686639 -6.11193575 -1.15916023 0 0 Z " fill="#040202" transform="translate(455,218)"/>
<path d="M0 0 C3.21142855 2.37366458 4.71584605 3.93442268 5.75 7.8125 C3.84013592 15.92942236 -5.56758155 22.72067406 -11.3125 28.4375 C-12.12267578 29.25154297 -12.93285156 30.06558594 -13.76757812 30.90429688 C-14.54166016 31.67708984 -15.31574219 32.44988281 -16.11328125 33.24609375 C-16.81235596 33.94404053 -17.51143066 34.6419873 -18.23168945 35.36108398 C-20.52543301 37.48698492 -21.68521749 37.958029 -24.8125 38.375 C-28 38 -28 38 -30.875 35.875 C-33 33 -33 33 -33.75 30.1875 C-31.84013592 22.07057764 -22.43241845 15.27932594 -16.6875 9.5625 C-15.87732422 8.74845703 -15.06714844 7.93441406 -14.23242188 7.09570312 C-13.45833984 6.32291016 -12.68425781 5.55011719 -11.88671875 4.75390625 C-11.18764404 4.05595947 -10.48856934 3.3580127 -9.76831055 2.63891602 C-6.60879945 -0.2894007 -4.24666455 -0.49960759 0 0 Z " fill="#000000" transform="translate(160,409)"/>
<path d="M0 0 C6.13807485 4.53694968 11.48736759 10.30459358 16.875 15.6875 C17.63296875 16.43322266 18.3909375 17.17894531 19.171875 17.94726562 C19.89632813 18.66978516 20.62078125 19.39230469 21.3671875 20.13671875 C22.01800293 20.78342529 22.66881836 21.43013184 23.33935547 22.09643555 C25.98876574 25.13340289 27.06140022 26.99712978 26.8125 31.0625 C25.6311264 35.33361995 25.6311264 35.33361995 23 37 C19.8125 38.125 19.8125 38.125 16 38 C14.22924805 36.78833008 14.22924805 36.78833008 12.38671875 35.08203125 C11.69022217 34.44233398 10.99372559 33.80263672 10.27612305 33.14355469 C9.52500244 32.43618164 8.77388184 31.72880859 8 31 C6.79887573 29.89640137 6.79887573 29.89640137 5.57348633 28.77050781 C3.01710316 26.39929776 0.50654023 23.98625894 -2 21.5625 C-2.87011719 20.75490234 -3.74023438 19.94730469 -4.63671875 19.11523438 C-11.55639407 12.37479711 -11.55639407 12.37479711 -11.6953125 7.55859375 C-11 4 -11 4 -8.875 1.5 C-5.3405323 -0.3440701 -3.92618718 -0.84682469 0 0 Z " fill="#000000" transform="translate(358,409)"/>
<path d="M0 0 C1.17018677 -0.01142029 1.17018677 -0.01142029 2.36401367 -0.02307129 C4.00794281 -0.03384226 5.65194021 -0.03673762 7.29589844 -0.03222656 C9.80519864 -0.03125283 12.3114523 -0.07293085 14.8203125 -0.1171875 C16.42186865 -0.12239412 18.02343538 -0.1250827 19.625 -0.125 C20.37096436 -0.14139526 21.11692871 -0.15779053 21.88549805 -0.17468262 C25.83256129 -0.12252774 27.63832555 0.33331908 30.7890625 2.78320312 C32.8125 5.46875 32.8125 5.46875 33.375 9.03125 C32.70544879 13.12295185 32.12917683 14.05134612 28.8125 16.46875 C25.84392479 16.87868091 23.2532195 17.05367644 20.28515625 17.03515625 C19.4592247 17.04135483 18.63329315 17.04755341 17.78233337 17.05393982 C16.0382505 17.06103289 14.29409984 17.05787283 12.55004883 17.04516602 C9.88690999 17.03131196 7.22729454 17.06535898 4.56445312 17.10351562 C2.86718664 17.104467 1.16991578 17.102607 -0.52734375 17.09765625 C-1.7166172 17.11754356 -1.7166172 17.11754356 -2.92991638 17.13783264 C-7.19304354 17.06635406 -8.74415312 16.82273067 -12.20092773 14.06274414 C-14.1875 11.46875 -14.1875 11.46875 -14.6328125 9.3359375 C-14.52710937 8.67851562 -14.42140625 8.02109375 -14.3125 7.34375 C-14.23257813 6.68117188 -14.15265625 6.01859375 -14.0703125 5.3359375 C-11.45985502 -0.18529557 -5.34091784 0.00144209 0 0 Z " fill="#000000" transform="translate(91.1875,309.53125)"/>
<path d="M0 0 C1.24245483 -0.00574036 1.24245483 -0.00574036 2.51000977 -0.01159668 C4.25831317 -0.01431425 6.00665734 -0.00696381 7.75488281 0.00976562 C10.42865777 0.03117918 13.09974596 0.00996056 15.7734375 -0.015625 C17.47396425 -0.01298169 19.17448934 -0.00785665 20.875 0 C22.07201538 -0.01214539 22.07201538 -0.01214539 23.29321289 -0.02453613 C26.88117299 0.03597855 29.01353167 0.21757968 31.9375 2.38085938 C33.4375 4.53125 33.4375 4.53125 34 7.46875 C33.23210654 11.64950329 31.75462655 12.9122654 28.4375 15.53125 C25.50813764 16.03091595 23.17159945 16.23495241 20.25 16.1953125 C19.07981323 16.20248795 19.07981323 16.20248795 17.88598633 16.20980835 C16.24200414 16.21320008 14.59795385 16.20404831 12.95410156 16.18310547 C10.44442705 16.15632392 7.93922371 16.182872 5.4296875 16.21484375 C3.82811518 16.21153952 2.22654562 16.20513299 0.625 16.1953125 C-0.12096436 16.20543365 -0.86692871 16.21555481 -1.63549805 16.22598267 C-5.59515591 16.13736488 -7.39539523 15.66318492 -10.5390625 13.18115234 C-12.5625 10.53125 -12.5625 10.53125 -13.125 7.46875 C-11.72060044 0.13466338 -6.4982651 -0.06593394 0 0 Z " fill="#060303" transform="translate(400.5625,310.46875)"/>
<path d="M0 0 C3.72416103 0.71313722 4.68466627 1.52110021 6.9375 4.5625 C7.34729806 7.54230392 7.5224234 10.14571317 7.50390625 13.125 C7.51320412 14.36745483 7.51320412 14.36745483 7.52268982 15.63500977 C7.52978217 17.38328884 7.52662411 19.13163554 7.51391602 20.87988281 C7.5000441 23.55399824 7.53413146 26.22461732 7.57226562 28.8984375 C7.57321681 30.59895919 7.57135802 32.29948525 7.56640625 34 C7.57966446 34.79801025 7.59292267 35.59602051 7.60658264 36.41821289 C7.54044407 40.36324984 7.32196969 42.15786982 4.55834961 45.06640625 C1.60701013 46.75115784 0.26456462 47.24497479 -3.0625 46.5625 C-5.30682982 44.69222515 -6.75693202 43.17363596 -8.0625 40.5625 C-8.34604633 35.62197436 -8.37621247 30.68055999 -8.41259766 25.73266602 C-8.42914678 24.08278284 -8.45642356 22.43297105 -8.49462891 20.78344727 C-8.54951149 18.40082742 -8.5712871 16.01988628 -8.5859375 13.63671875 C-8.60860687 12.90321701 -8.63127625 12.16971527 -8.65463257 11.41398621 C-8.63839509 7.46067557 -8.1983273 5.73476981 -5.72119141 2.59301758 C-3.0625 0.5625 -3.0625 0.5625 0 0 Z " fill="#060303" transform="translate(256.0625,139.4375)"/>
<path d="M0 0 C1.9375 1.1875 1.9375 1.1875 3 3 C3.625 5.6875 3.625 5.6875 3 9 C1.72412109 10.74169922 1.72412109 10.74169922 0.0234375 12.6171875 C-0.92909912 13.66894165 -0.92909912 13.66894165 -1.90087891 14.74194336 C-2.59358887 15.48710205 -3.28629883 16.23226074 -4 17 C-4.70946777 17.76513916 -5.41893555 18.53027832 -6.14990234 19.31860352 C-8.40734552 21.71797284 -10.69870228 24.08021433 -13 26.4375 C-13.76828125 27.25154297 -14.5365625 28.06558594 -15.328125 28.90429688 C-21.70733366 35.40826897 -21.70733366 35.40826897 -25.875 36.16015625 C-29 36 -29 36 -32 34 C-34 31 -34 31 -33.95483398 27.68115234 C-32.82895809 23.34058554 -30.88421713 21.09178498 -27.72265625 18.1015625 C-27.19610947 17.58113373 -26.66956268 17.06070496 -26.12705994 16.52450562 C-24.45248054 14.87672531 -22.75793313 13.25128586 -21.0625 11.625 C-19.92641671 10.51045613 -18.79163623 9.39458262 -17.65820312 8.27734375 C-7.58068187 -1.59593303 -7.58068187 -1.59593303 0 0 Z " fill="#030202" transform="translate(381,191)"/>
<path d="M0 0 C3.46094715 0.73212344 4.3206636 1.3710439 6.859375 3.671875 C7.56094727 4.30649658 8.26251953 4.94111816 8.98535156 5.5949707 C9.73268555 6.28550537 10.48001953 6.97604004 11.25 7.6875 C12.02053711 8.39156982 12.79107422 9.09563965 13.58496094 9.82104492 C16.00334137 12.05935954 18.37880439 14.33683486 20.75 16.625 C21.57242188 17.38490234 22.39484375 18.14480469 23.2421875 18.92773438 C29.77451195 25.28101671 29.77451195 25.28101671 29.8828125 30.09765625 C29.25 33.6875 29.25 33.6875 27.625 36.1875 C24.48015632 38.17371706 22.93578879 38.18047356 19.25 37.6875 C16.89024768 35.93712189 15.01300987 34.31665543 12.9765625 32.24609375 C12.40795502 31.6855983 11.83934753 31.12510284 11.25350952 30.54762268 C10.05786461 29.36042563 8.86980633 28.16554524 7.68896484 26.96362305 C5.8822213 25.13231946 4.04353162 23.33829096 2.19921875 21.54492188 C1.03957106 20.38490366 -0.11805236 19.22285756 -1.2734375 18.05859375 C-1.82333344 17.52600449 -2.37322937 16.99341522 -2.93978882 16.44468689 C-5.71086327 13.56945702 -6.71854055 11.95300182 -7.19384766 7.94165039 C-6.75 4.6875 -6.75 4.6875 -5.125 2.25 C-2.75 0.6875 -2.75 0.6875 0 0 Z " fill="#030202" transform="translate(134.75,189.3125)"/>
<path d="M0 0 C13.53 0 27.06 0 41 0 C39.80743041 5.36656315 38.5102723 10.71404694 37 16 C26.44 16 15.88 16 5 16 C3.35 10.72 1.7 5.44 0 0 Z " fill="#EBE8EB" transform="translate(235,481)"/>
<path d="M0 0 C7.59 0 15.18 0 23 0 C23 5.28 23 10.56 23 16 C-2.74 16 -28.48 16 -55 16 C-55 15.67 -55 15.34 -55 15 C-36.85 15 -18.7 15 0 15 C0 10.05 0 5.1 0 0 Z " fill="#746D77" transform="translate(272,419)"/>
<path d="M0 0 C7.59 0 15.18 0 23 0 C23 11 23 11 20.93135071 14.15202332 C17.35527775 16.4064446 15.31084919 16.60613208 11.09838867 16.56762695 C10.42466217 16.56835709 9.75093567 16.56908722 9.05679321 16.56983948 C6.84301556 16.56637235 4.63137597 16.52755972 2.41796875 16.48828125 C0.87812957 16.47894984 -0.6617245 16.47183527 -2.20158386 16.46684265 C-6.2445104 16.44779819 -10.28653152 16.39872094 -14.32910156 16.34332275 C-18.45820875 16.29207425 -22.58746297 16.26931675 -26.71679688 16.24414062 C-34.81161233 16.19059836 -42.90569338 16.10531812 -51 16 C-51 15.67 -51 15.34 -51 15 C-34.5 14.67 -18 14.34 -1 14 C-0.67 9.38 -0.34 4.76 0 0 Z " fill="#665E66" transform="translate(272,450)"/>
<path d="M0 0 C18.78883992 0.98888631 37.22901151 10.40507677 50 24 C45.80067182 24.61081137 41.61583897 25.11809821 37.375 25.3125 C36.33472656 25.36857422 36.33472656 25.36857422 35.2734375 25.42578125 C29.79327129 24.3994271 25.80196804 20.00098289 21.9375 16.25 C16.90199601 11.57368148 11.69411806 8.11356076 5.75 4.69140625 C3.44419838 3.27320724 1.77378275 2.01398249 0 0 Z " fill="#D7616C" transform="translate(251,16)"/>
<path d="M0 0 C5.61 0 11.22 0 17 0 C15.8307545 5.4286398 14.53043539 10.64347613 13 16 C7.39 16 1.78 16 -4 16 C-3.14431391 10.01019738 -1.97857386 5.59162178 0 0 Z " fill="#C0BBC3" transform="translate(259,481)"/>
<path d="M0 0 C3.71317907 1.14770989 5.2692056 1.85342428 7.4375 5.0625 C8 8 8 8 7.4375 11.0625 C4.80538535 14.73150829 3.34895674 15.90259531 -1.125 16.6875 C-4.5625 16.0625 -4.5625 16.0625 -7 13.9375 C-8.85305839 10.52787255 -9.27838388 8.88054737 -8.5625 5.0625 C-5.88937913 1.25532785 -4.71546409 0.08272744 0 0 Z " fill="#EDEAED" transform="translate(287.5625,309.9375)"/>
<path d="M0 0 C3.71317907 1.14770989 5.2692056 1.85342428 7.4375 5.0625 C8 8 8 8 7.4375 11.0625 C4.80538535 14.73150829 3.34895674 15.90259531 -1.125 16.6875 C-4.5625 16.0625 -4.5625 16.0625 -7 13.9375 C-8.85305839 10.52787255 -9.27838388 8.88054737 -8.5625 5.0625 C-5.88937913 1.25532785 -4.71546409 0.08272744 0 0 Z " fill="#EDEAED" transform="translate(225.5625,309.9375)"/>
</svg>
