<?xml version="1.0" standalone="no"?>
<!DOCTYPE svg PUBLIC "-//W3C//DTD SVG 20010904//EN"
 "http://www.w3.org/TR/2001/REC-SVG-20010904/DTD/svg10.dtd">
<svg version="1.0" xmlns="http://www.w3.org/2000/svg"
 width="1050.000000pt" height="396.000000pt" viewBox="0 0 1050.000000 396.000000"
 preserveAspectRatio="xMidYMid meet">

<g transform="translate(0.000000,396.000000) scale(0.100000,-0.100000)"
fill="#000000" stroke="none">
<path d="M1937 3520 c-136 -24 -260 -123 -326 -259 l-36 -76 -55 -8 c-79 -11
-210 -76 -274 -137 -113 -107 -161 -297 -122 -480 l11 -55 -67 -73 c-73 -79
-107 -141 -133 -242 -49 -187 49 -434 213 -540 22 -14 23 -17 11 -63 -19 -78
-7 -199 29 -285 37 -86 76 -136 151 -195 77 -61 113 -77 183 -85 l61 -7 16
-50 c20 -61 86 -160 137 -205 136 -119 395 -127 536 -16 l32 24 31 -24 c49
-37 114 -61 199 -74 149 -22 246 9 351 114 69 70 95 113 111 190 9 38 11 40
66 52 89 21 149 57 217 130 109 119 147 241 129 409 l-8 77 73 68 c125 117
161 211 155 404 -4 109 -7 127 -34 186 -17 37 -56 92 -88 127 l-57 62 16 59
c56 219 -52 475 -241 570 -71 35 -136 59 -185 67 -33 5 -38 10 -64 72 -35 81
-127 184 -199 220 -27 14 -85 31 -127 39 -66 11 -90 11 -158 -1 -84 -15 -141
-36 -162 -61 -16 -20 -33 -18 -75 11 -72 49 -215 74 -317 55z m213 -192 c25
-13 51 -34 57 -48 10 -19 13 -127 13 -426 l0 -400 -72 -95 c-40 -51 -124 -157
-185 -234 -62 -77 -113 -145 -113 -152 0 -10 36 -13 155 -13 85 0 155 -3 155
-7 0 -5 -30 -129 -66 -276 -56 -227 -65 -272 -55 -294 11 -25 11 -25 40 -6 15
10 50 43 76 73 27 30 52 56 57 58 4 2 7 -122 5 -275 -2 -260 -3 -280 -23 -313
-11 -19 -36 -46 -55 -58 -31 -22 -42 -24 -135 -20 -123 6 -155 21 -201 97 -44
73 -57 138 -35 169 30 41 52 86 52 105 0 31 -49 67 -91 67 -32 0 -42 -6 -66
-36 -53 -71 -126 -77 -212 -20 -48 33 -104 113 -121 176 -15 53 -12 135 6 181
13 30 41 61 106 115 125 104 168 111 204 34 43 -89 120 -119 163 -64 48 61 17
147 -81 227 -54 44 -89 58 -148 59 -62 0 -99 -17 -209 -101 -52 -39 -104 -71
-116 -71 -47 0 -129 118 -156 223 -27 109 18 269 93 332 37 32 54 29 135 -20
85 -52 146 -68 188 -51 58 25 73 88 32 130 -13 13 -48 31 -78 39 -76 22 -159
83 -175 127 -7 19 -13 76 -13 125 -1 80 2 97 29 152 35 75 107 148 158 163 60
16 133 12 170 -10 66 -40 95 -134 69 -222 -24 -79 -1 -138 55 -138 48 0 68 18
99 87 51 114 35 214 -56 344 -53 76 -56 107 -16 170 59 92 110 118 236 119 64
0 90 -5 125 -22z m552 -5 c68 -27 119 -103 139 -208 15 -78 42 -99 136 -102
122 -5 179 -26 238 -86 42 -43 54 -65 73 -128 33 -110 37 -167 18 -214 -28
-66 -65 -111 -107 -130 -33 -15 -45 -16 -78 -6 -39 11 -111 81 -111 106 0 7
-9 24 -21 39 -36 45 -105 32 -135 -25 -21 -41 -12 -69 41 -139 92 -119 158
-155 275 -148 60 4 87 10 123 31 25 15 53 27 61 27 21 0 89 -106 106 -164 7
-25 11 -75 8 -113 -6 -115 -83 -252 -159 -283 -25 -11 -38 -7 -121 33 -130 64
-169 73 -216 50 -46 -23 -63 -63 -42 -101 11 -19 39 -35 110 -62 124 -47 177
-75 191 -101 6 -13 9 -59 7 -118 -2 -81 -7 -105 -31 -154 -45 -92 -152 -159
-223 -141 -41 10 -112 86 -119 127 -13 69 -83 100 -139 63 -14 -9 -29 -28 -32
-42 -14 -54 37 -153 115 -228 41 -39 41 -83 1 -153 -38 -66 -97 -103 -178
-110 -110 -10 -210 27 -244 91 -8 15 -11 130 -9 400 l2 379 82 100 c45 55 128
156 184 224 165 199 166 193 -37 193 -82 0 -150 3 -150 7 0 16 93 365 116 435
31 95 29 129 -8 142 -33 12 -51 -3 -130 -101 -27 -35 -53 -63 -56 -63 -5 0 -8
544 -3 607 1 17 64 63 108 79 46 17 157 10 215 -13z"/>
<path d="M4070 2090 l0 -430 76 0 76 0 -4 35 c-2 19 -2 35 0 35 2 0 19 -13 38
-30 39 -34 82 -44 163 -38 131 9 215 116 237 299 15 126 -63 271 -171 320 -79
36 -172 20 -232 -40 -17 -17 -33 -31 -35 -31 -2 0 -2 70 0 155 l3 155 -76 0
-75 0 0 -430z m374 41 c80 -73 88 -213 16 -294 -65 -75 -176 -64 -219 22 -40
78 -39 203 2 254 47 59 146 68 201 18z"/>
<path d="M5338 2362 c-31 -86 -79 -220 -107 -297 -27 -77 -70 -198 -95 -268
-25 -70 -46 -130 -46 -133 0 -3 37 -4 81 -2 l82 3 35 103 36 102 152 0 151 0
39 -105 39 -105 82 0 82 0 -24 63 c-24 63 -39 104 -209 541 -53 137 -96 251
-96 253 0 2 -33 3 -72 3 l-73 0 -57 -158z m193 -223 c27 -73 49 -134 49 -136
0 -1 -45 -3 -100 -3 -55 0 -100 4 -100 8 0 7 68 215 85 261 3 8 8 11 11 9 3
-3 27 -66 55 -139z"/>
<path d="M5950 2090 l0 -430 70 0 70 0 0 430 0 430 -70 0 -70 0 0 -430z"/>
<path d="M7430 2355 l0 -85 -45 0 -45 0 0 -60 0 -60 44 0 44 0 4 -162 c2 -111
8 -171 17 -188 40 -74 117 -114 213 -108 l53 3 3 62 3 63 -45 -6 c-39 -6 -48
-3 -70 19 -25 25 -26 30 -26 156 0 71 -3 136 -6 145 -5 14 4 16 60 16 l66 0 0
60 0 60 -65 0 -65 0 0 85 0 85 -70 0 -70 0 0 -85z"/>
<path d="M6930 2285 c-74 -34 -120 -97 -120 -167 0 -99 59 -147 216 -179 54
-11 103 -24 111 -30 7 -6 13 -24 13 -40 0 -39 -40 -64 -101 -64 -57 0 -100 27
-114 73 -9 32 -10 32 -73 32 l-65 0 7 -41 c14 -87 71 -148 163 -175 72 -21
149 -13 223 24 73 36 100 77 100 152 0 106 -50 149 -207 181 -106 22 -143 39
-143 67 0 25 40 60 76 68 41 8 101 -18 116 -50 10 -24 17 -26 70 -26 54 0 58
2 58 23 -1 44 -38 105 -81 134 -37 24 -53 28 -128 31 -61 1 -96 -2 -121 -13z"/>
<path d="M7967 2286 c-89 -32 -164 -112 -188 -200 -19 -71 -7 -184 26 -245 90
-164 313 -202 453 -76 68 62 93 122 93 229 1 64 -4 95 -21 135 -28 64 -102
133 -167 155 -56 19 -144 20 -196 2z m171 -136 c98 -60 93 -257 -8 -311 -100
-54 -204 15 -216 143 -13 135 118 233 224 168z"/>
<path d="M4740 1975 l0 -312 80 -2 80 -2 1 173 c0 110 5 186 13 208 16 45 94
100 142 100 l34 0 0 75 c0 71 -1 75 -22 75 -46 0 -103 -23 -129 -51 l-28 -30
-3 38 -3 38 -82 1 -83 2 0 -313z m17 263 c-3 -7 -5 -2 -5 12 0 14 2 19 5 13 2
-7 2 -19 0 -25z m0 -520 c-2 -24 -4 -5 -4 42 0 47 2 66 4 43 2 -24 2 -62 0
-85z"/>
<path d="M6210 1993 l0 -298 65 0 65 0 0 165 c0 91 5 182 10 202 15 51 61 88
111 88 97 0 109 -32 109 -275 l0 -185 48 0 c99 0 92 -15 92 214 0 215 -7 261
-47 315 -68 90 -233 93 -301 6 l-22 -28 0 47 0 46 -65 0 -65 0 0 -297z"/>
<path d="M8450 1992 l0 -297 70 -2 70 -2 0 170 c0 186 7 220 55 257 20 16 42
22 76 22 l49 0 0 75 0 75 -29 0 c-42 0 -73 -14 -115 -50 l-36 -32 0 41 0 41
-70 0 -70 0 0 -298z"/>
<path d="M8850 1993 l0 -298 65 0 65 0 1 175 c0 108 5 188 12 209 26 73 114
99 165 48 l27 -27 3 -200 3 -200 67 0 67 0 1 183 c0 159 3 187 19 214 33 57
104 70 152 29 l28 -24 3 -201 3 -201 70 0 70 0 -3 223 c-3 202 -5 226 -24 261
-63 122 -225 141 -315 39 -32 -37 -33 -37 -60 9 -15 27 -84 58 -129 58 -50 0
-102 -21 -135 -54 l-25 -25 0 39 0 40 -65 0 -65 0 0 -297z"/>
</g>
</svg>
